<svg xmlns="http://www.w3.org/2000/svg" width="800" height="30.63" viewBox="0 0 800 30.63">
  <defs>
    <style>
      .cls-1 {
        fill: #f7981d;
      }
    </style>
  </defs>
  <title>line</title>
  <g id="Layer_2" data-name="Layer 2">
    <g id="Layer_1-2" data-name="Layer 1">
      <g>
        <path class="cls-1" d="M100.87,23.33c-4.54-4.69-9.22-9.23-13.8-13.88-.43-.41-.86-1-1.55-.89-4,0-8.08,0-12.12,0a6.43,6.43,0,0,1-5.5,3.69A6.13,6.13,0,1,1,67.52,0a6.35,6.35,0,0,1,5.85,3.65q6.85,0,13.7,0A2.4,2.4,0,0,1,89,4.42c6.25,6.32,12.59,12.57,18.84,18.89Zm-34-19.91A2.82,2.82,0,1,0,70.33,7.1,2.84,2.84,0,0,0,66.89,3.42Z"/>
        <path class="cls-1" d="M0,25.08a6,6,0,0,1,5.73-6.5,6.32,6.32,0,0,1,5.88,3.6H788.37a6.22,6.22,0,0,1,7.19-3.39,6,6,0,0,1-2.77,11.71A6.18,6.18,0,0,1,788.41,27q-126.1-.12-252.21,0Q273.93,27,11.63,27a6.31,6.31,0,0,1-4.72,3.56A6,6,0,0,1,0,25.08Zm4.72-2.94a2.77,2.77,0,1,0,4.06,2.54A2.8,2.8,0,0,0,4.75,22.14Zm787.81.07a2.77,2.77,0,1,0,4.17,2.48A2.78,2.78,0,0,0,792.56,22.21Z"/>
      </g>
    </g>
  </g>
</svg>
