<svg xmlns="http://www.w3.org/2000/svg" width="800" height="30.63" viewBox="0 0 800 30.63">
  <defs>
    <style>
      .cls-1 {
        fill: #f7981d;
      }
    </style>
  </defs>
  <title>line-right</title>
  <g id="Layer_2" data-name="Layer 2">
    <g id="Layer_1-2" data-name="Layer 1">
      <g>
        <path class="cls-1" d="M692.18,23.31C698.43,17,704.77,10.74,711,4.42a2.4,2.4,0,0,1,1.91-.77q6.84,0,13.7,0A6.35,6.35,0,0,1,732.48,0a6.13,6.13,0,1,1-.38,12.25,6.43,6.43,0,0,1-5.5-3.69c-4,0-8.08,0-12.12,0-.69-.12-1.12.48-1.55.89-4.58,4.65-9.26,9.19-13.8,13.88ZM729.67,7.1a2.82,2.82,0,1,0,3.44-3.68A2.84,2.84,0,0,0,729.67,7.1Z"/>
        <path class="cls-1" d="M793.09,30.55A6.31,6.31,0,0,1,788.37,27q-262.29,0-524.57,0Q137.7,27,11.59,27A6.18,6.18,0,0,1,7.21,30.5,6,6,0,0,1,4.44,18.79a6.22,6.22,0,0,1,7.19,3.39H788.36a6.32,6.32,0,0,1,5.88-3.6,6,6,0,1,1-1.15,12Zm-1.9-5.87a2.77,2.77,0,1,0,4.06-2.54A2.79,2.79,0,0,0,791.19,24.68Zm-787.92,0a2.77,2.77,0,1,0,4.17-2.48A2.78,2.78,0,0,0,3.27,24.69Z"/>
      </g>
    </g>
  </g>
</svg>
