<?xml version="1.0" encoding="utf-8"?>
<!-- Generator: Adobe Illustrator 18.1.1, SVG Export Plug-In . SVG Version: 6.00 Build 0)  -->
<svg version="1.1" id="Layer_2" xmlns="http://www.w3.org/2000/svg" xmlns:xlink="http://www.w3.org/1999/xlink" x="0px" y="0px"
	 viewBox="0 0 396 154.1" enable-background="new 0 0 396 154.1" xml:space="preserve">
<g>
	<polygon fill-rule="evenodd" clip-rule="evenodd" fill="#FF9900" points="51,147.7 27.7,139.3 27.7,105.2 51,113.1 	"/>
	<polygon fill-rule="evenodd" clip-rule="evenodd" fill="#FF9900" points="55.3,147.7 78.5,139.3 78.5,105.2 55.3,113.1 	"/>
	<polygon fill-rule="evenodd" clip-rule="evenodd" fill="#FF9900" points="30.1,102.7 53.7,96 75.5,103.1 53.7,110.5 	"/>
</g>
<g>
	<polygon fill-rule="evenodd" clip-rule="evenodd" fill="#FF9900" points="23.3,100 0,91.7 0,57.6 23.3,65.5 	"/>
	<polygon fill-rule="evenodd" clip-rule="evenodd" fill="#FF9900" points="27.5,100 50.8,91.7 50.8,57.6 27.5,65.5 	"/>
	<polygon fill-rule="evenodd" clip-rule="evenodd" fill="#FF9900" points="2.4,55 26,48.4 47.8,55.4 26,62.8 	"/>
</g>
<g>
	<polygon fill-rule="evenodd" clip-rule="evenodd" fill="#FF9900" points="77.6,100 54.3,91.7 54.3,57.6 77.6,65.5 	"/>
	<polygon fill-rule="evenodd" clip-rule="evenodd" fill="#FF9900" points="81.9,100 105.1,91.7 105.1,57.6 81.9,65.5 	"/>
	<polygon fill-rule="evenodd" clip-rule="evenodd" fill="#FF9900" points="56.7,55 80.3,48.4 102.1,55.4 80.3,62.8 	"/>
</g>
<g>
	<polygon fill-rule="evenodd" clip-rule="evenodd" fill="#FF9900" points="105.3,52.4 82,44 82,9.9 105.3,17.8 	"/>
	<polygon fill-rule="evenodd" clip-rule="evenodd" fill="#FF9900" points="109.6,52.4 132.9,44 132.9,9.9 109.6,17.8 	"/>
	<polygon fill-rule="evenodd" clip-rule="evenodd" fill="#FF9900" points="84.4,7.3 108,0.7 129.8,7.8 108,15.2 	"/>
</g>
<g>
	<polygon fill-rule="evenodd" clip-rule="evenodd" fill="#FF9900" points="159.6,52.4 136.4,44 136.4,9.9 159.6,17.8 	"/>
	<polygon fill-rule="evenodd" clip-rule="evenodd" fill="#FF9900" points="163.9,52.4 187.2,44 187.2,9.9 163.9,17.8 	"/>
	<polygon fill-rule="evenodd" clip-rule="evenodd" fill="#FF9900" points="138.7,7.3 162.3,0.7 184.2,7.8 162.3,15.2 	"/>
</g>
<g>
	<path fill="#FFFFFF" stroke="#FFFFFF" stroke-width="1.0091" d="M147.8,125.4l-7.8,27.2h-3.4l-6.1-20.2l-5.6,20.2h-3.5l-8.1-27.2
		h4.2l5.9,20.2l5.6-20.2h3.1l6.1,20.3l6.1-20.3H147.8z"/>
	<path fill="#FFFFFF" stroke="#FFFFFF" stroke-width="1.0091" d="M169.4,144.5l3.9,0.8c-0.7,2.3-2.1,4.2-4.2,5.8
		c-2.1,1.5-4.5,2.3-7.3,2.3c-3.7,0-6.7-1.3-9-3.9c-2.3-2.6-3.4-6-3.4-10.3c0-4.3,1.2-7.8,3.6-10.5c2.4-2.7,5.4-4,9-4
		c3.5,0,6.4,1.2,8.6,3.7c2.2,2.5,3.3,6.1,3.3,11h-19.7c0,4.1,0.9,6.9,2.6,8.3c1.7,1.4,3.5,2.2,5.4,2.2
		C165.6,149.9,168,148.1,169.4,144.5z M169.2,136.2c0-1.5-0.3-2.9-0.8-4.1c-0.5-1.2-1.3-2.2-2.4-3c-1.1-0.8-2.4-1.2-4-1.2
		c-2.1,0-3.9,0.8-5.3,2.3c-1.5,1.5-2.3,3.5-2.5,6.1H169.2z"/>
	<path fill="#FFFFFF" stroke="#FFFFFF" stroke-width="1.0091" d="M181.4,152.6h-2v-36.7h4.2v14c1.9-3.5,4.6-5.3,8-5.3
		c3.1,0,5.7,1.2,7.8,3.7c2.1,2.5,3.2,6,3.2,10.7c0,4-1,7.4-3.1,10.2c-2.1,2.7-4.8,4.1-8.1,4.1c-3.7,0-6.5-1.7-8.5-5.2L181.4,152.6z
		 M183.6,142c0.2,2.8,1.1,4.8,2.6,6.1c1.5,1.3,3.1,1.9,4.8,1.9c2.1,0,3.9-0.9,5.2-2.8c1.3-1.9,2-4.4,2-7.7c0-3.5-0.6-6.2-1.9-8.2
		c-1.3-2-3-3-5.3-3c-1.8,0-3.4,0.7-4.8,2.1c-1.4,1.4-2.3,3.3-2.5,5.5V142z"/>
	<path fill="#FFFFFF" stroke="#FFFFFF" stroke-width="1.0091" d="M213.4,145.6l4-0.8c0.9,3.4,3.7,5.1,8.5,5.1c1.8,0,3.2-0.4,4.5-1.2
		c1.2-0.8,1.8-1.9,1.8-3.3c0-2.1-1.6-3.5-4.7-4l-5.7-1.1c-2.2-0.4-4-1.3-5.4-2.5c-1.3-1.3-2-2.9-2-5c0-2.3,0.9-4.2,2.7-5.7
		c1.8-1.5,4.2-2.3,7.3-2.3c5.9,0,9.5,2.3,10.9,6.9l-3.9,0.8c-1.1-2.8-3.4-4.2-6.8-4.2c-1.7,0-3.1,0.4-4.2,1.1
		c-1.1,0.7-1.7,1.7-1.7,3c0,2,1.4,3.3,4.2,3.8l5.3,1c5.5,1,8.3,3.7,8.3,8.1c0,2.5-1,4.5-3.1,6c-2.1,1.5-4.8,2.3-8.2,2.3
		C218.9,153.4,214.9,150.8,213.4,145.6z"/>
	<path fill="#FFFFFF" stroke="#FFFFFF" stroke-width="1.0091" d="M259.1,144.5l3.9,0.8c-0.7,2.3-2.1,4.2-4.2,5.8
		c-2.1,1.5-4.5,2.3-7.3,2.3c-3.7,0-6.7-1.3-9-3.9c-2.3-2.6-3.4-6-3.4-10.3c0-4.3,1.2-7.8,3.6-10.5c2.4-2.7,5.4-4,9-4
		c3.5,0,6.4,1.2,8.6,3.7c2.2,2.5,3.3,6.1,3.3,11h-19.7c0,4.1,0.9,6.9,2.6,8.3c1.7,1.4,3.5,2.2,5.4,2.2
		C255.3,149.9,257.7,148.1,259.1,144.5z M258.9,136.2c0-1.5-0.3-2.9-0.8-4.1c-0.5-1.2-1.3-2.2-2.4-3c-1.1-0.8-2.4-1.2-4-1.2
		c-2.1,0-3.9,0.8-5.3,2.3c-1.5,1.5-2.3,3.5-2.5,6.1H258.9z"/>
	<path fill="#FFFFFF" stroke="#FFFFFF" stroke-width="1.0091" d="M272.3,152.6h-4.2v-27.2h3.7v6.3c1.3-3,2.6-4.9,3.9-5.8
		c1.3-0.9,2.7-1.3,4-1.3c0.4,0,1,0,1.7,0.1v4h-0.9c-2.3,0-4.3,0.9-5.8,2.6c-1.5,1.7-2.4,4-2.5,6.8V152.6z"/>
	<path fill="#FFFFFF" stroke="#FFFFFF" stroke-width="1.0091" d="M307.7,125.4l-9.4,27.2H294l-9.7-27.2h4.7l7.5,22.1l7.5-22.1H307.7
		z"/>
	<path fill="#FFFFFF" stroke="#FFFFFF" stroke-width="1.0091" d="M315.6,115.9v4.7h-4.5v-4.7H315.6z M315.5,125.4v27.2h-4.2v-27.2
		H315.5z"/>
	<path fill="#FFFFFF" stroke="#FFFFFF" stroke-width="1.0091" d="M337.6,143.1l3.8,0.7c-0.5,3-1.7,5.4-3.6,7
		c-1.8,1.7-4.1,2.5-6.9,2.5c-3.7,0-6.6-1.4-8.6-4.1c-2-2.8-2.9-6.1-2.9-10.1c0-4.1,1-7.6,3.1-10.3c2.1-2.7,4.9-4.1,8.5-4.1
		c3,0,5.3,0.9,7.1,2.7c1.8,1.8,2.9,4.1,3.3,6.9l-3.8,0.7c-0.7-4.5-2.9-6.7-6.5-6.7c-2.3,0-4.1,1-5.4,3c-1.3,2-1.9,4.5-1.9,7.7
		c0,3.5,0.6,6.2,1.9,8.1c1.2,1.9,3,2.9,5.2,2.9C334.5,149.9,336.7,147.6,337.6,143.1z"/>
	<path fill="#FFFFFF" stroke="#FFFFFF" stroke-width="1.0091" d="M365.3,144.5l3.9,0.8c-0.7,2.3-2.1,4.2-4.2,5.8
		c-2.1,1.5-4.5,2.3-7.3,2.3c-3.7,0-6.7-1.3-9-3.9c-2.3-2.6-3.4-6-3.4-10.3c0-4.3,1.2-7.8,3.6-10.5c2.4-2.7,5.4-4,9-4
		c3.5,0,6.4,1.2,8.6,3.7c2.2,2.5,3.3,6.1,3.3,11H350c0,4.1,0.9,6.9,2.6,8.3c1.7,1.4,3.5,2.2,5.4,2.2
		C361.5,149.9,363.9,148.1,365.3,144.5z M365.1,136.2c0-1.5-0.3-2.9-0.8-4.1c-0.5-1.2-1.3-2.2-2.4-3c-1.1-0.8-2.4-1.2-4-1.2
		c-2.1,0-3.9,0.8-5.3,2.3c-1.5,1.5-2.3,3.5-2.5,6.1H365.1z"/>
	<path fill="#FFFFFF" stroke="#FFFFFF" stroke-width="1.0091" d="M372.1,145.6l4-0.8c0.9,3.4,3.7,5.1,8.5,5.1c1.8,0,3.2-0.4,4.5-1.2
		c1.2-0.8,1.8-1.9,1.8-3.3c0-2.1-1.6-3.5-4.7-4l-5.7-1.1c-2.2-0.4-4-1.3-5.4-2.5c-1.3-1.3-2-2.9-2-5c0-2.3,0.9-4.2,2.7-5.7
		c1.8-1.5,4.2-2.3,7.3-2.3c5.9,0,9.5,2.3,10.9,6.9l-3.9,0.8c-1.1-2.8-3.4-4.2-6.8-4.2c-1.7,0-3.1,0.4-4.2,1.1
		c-1.1,0.7-1.7,1.7-1.7,3c0,2,1.4,3.3,4.2,3.8l5.3,1c5.5,1,8.3,3.7,8.3,8.1c0,2.5-1,4.5-3.1,6c-2.1,1.5-4.8,2.3-8.2,2.3
		C377.6,153.4,373.6,150.8,372.1,145.6z"/>
</g>
<g>
	<g>
		<path fill-rule="evenodd" clip-rule="evenodd" fill="#FFFFFF" d="M276.7,67.4v-6.5c0-1,0.8-1.7,1.7-1.7l29.2,0
			c0.9,0,1.7,0.7,1.7,1.6l0,5.6c0,0.9-0.8,2.2-2.2,4.1l-15.1,21.6c5.6-0.1,11.6,0.7,16.7,3.6c1.2,0.6,1.5,1.6,1.6,2.5v7
			c0,1-1,2.1-2.2,1.5c-9-4.7-20.9-5.2-30.9,0.1c-1,0.5-2.1-0.6-2.1-1.5v-6.6c0-1.1,0-2.9,1.1-4.5L293.7,69l-15.3,0
			C277.5,69,276.7,68.4,276.7,67.4z"/>
		<path fill-rule="evenodd" clip-rule="evenodd" fill="#FFFFFF" d="M172,108.1h-8.9c-0.8-0.1-1.5-0.7-1.6-1.5l0-45.7
			c0-0.9,0.8-1.6,1.7-1.6l8.3,0c0.9,0,1.6,0.7,1.6,1.5v6h0.2c2.2-5.8,6.2-8.5,11.7-8.5c5.6,0,9.1,2.7,11.5,8.5
			c2.2-5.8,7.1-8.5,12.3-8.5c3.7,0,7.8,1.5,10.3,5c2.8,3.8,2.2,9.4,2.2,14.3l0,28.8c0,0.9-0.8,1.6-1.7,1.6h-8.9
			c-0.9-0.1-1.6-0.8-1.6-1.6l0-24.2c0-1.9,0.2-6.7-0.2-8.6c-0.7-3.1-2.7-3.9-5.2-3.9c-2.2,0-4.4,1.4-5.3,3.7
			c-0.9,2.3-0.8,6.1-0.8,8.7v24.2c0,0.9-0.8,1.6-1.7,1.6H187c-0.9-0.1-1.6-0.8-1.6-1.6l0-24.2c0-5.1,0.8-12.6-5.5-12.6
			c-6.4,0-6.1,7.3-6.1,12.6l0,24.2C173.8,107.4,173,108.1,172,108.1z"/>
		<path fill-rule="evenodd" clip-rule="evenodd" fill="#FFFFFF" d="M330.8,58.4c13.1,0,20.2,11.3,20.2,25.7c0,13.9-7.8,25-20.2,25
			c-12.9,0-19.9-11.3-19.9-25.5C310.9,69.4,318,58.4,330.8,58.4z M330.9,68.9c-6.5,0-6.9,8.9-6.9,14.5c0,5.6-0.1,16.3,6.8,16.3
			c6.8,0,7.2-8.4,7.2-14.3c0-3.8-0.2-8.5-1.3-12.1C335.6,70.1,333.7,68.9,330.9,68.9z"/>
		<path fill-rule="evenodd" clip-rule="evenodd" fill="#FFFFFF" d="M369.9,108.1h-8.9c-0.9-0.1-1.6-0.8-1.6-1.6l0-45.7
			c0.1-0.8,0.8-1.5,1.7-1.5l8.3,0c0.8,0,1.4,0.6,1.6,1.3v7h0.2c2.5-6.2,6-9.2,12.1-9.2c4,0,7.9,1.4,10.4,5.4
			c2.3,3.7,2.3,9.8,2.3,14.2v28.7c-0.1,0.8-0.8,1.4-1.7,1.4h-8.9c-0.8-0.1-1.5-0.7-1.6-1.4V81.9c0-5,0.6-12.3-5.6-12.3
			c-2.2,0-4.2,1.4-5.1,3.7c-1.2,2.8-1.4,5.6-1.4,8.6v24.6C371.6,107.4,370.9,108.1,369.9,108.1z"/>
		<path fill-rule="evenodd" clip-rule="evenodd" fill="#FFFFFF" d="M254.4,86.3c0,3.5,0.1,6.4-1.7,9.4c-1.4,2.5-3.7,4-6.2,4
			c-3.4,0-5.4-2.6-5.4-6.5c0-7.6,6.8-9,13.2-9V86.3z M263.4,108c-0.6,0.5-1.4,0.6-2.1,0.2c-3-2.5-3.5-3.6-5.1-5.9
			c-4.9,5-8.3,6.5-14.7,6.5c-7.5,0-13.3-4.6-13.3-13.9c0-7.2,3.9-12.1,9.5-14.5c4.8-2.1,11.6-2.5,16.7-3.1v-1.2
			c0-2.1,0.2-4.6-1.1-6.5c-1.1-1.6-3.2-2.3-5-2.3c-3.4,0-6.4,1.7-7.2,5.3c-0.2,0.8-0.7,1.6-1.5,1.6l-8.6-0.9
			c-0.7-0.2-1.5-0.7-1.3-1.9c2-10.5,11.4-13.6,19.9-13.6c4.3,0,10,1.2,13.4,4.4c4.3,4,3.9,9.4,3.9,15.3v13.9c0,4.2,1.7,6,3.4,8.2
			c0.6,0.8,0.7,1.8,0,2.4C268.4,103.7,265.2,106.5,263.4,108L263.4,108z"/>
		<path fill-rule="evenodd" clip-rule="evenodd" fill="#FFFFFF" d="M138.8,86.3c0,3.5,0.1,6.4-1.7,9.4c-1.4,2.5-3.7,4-6.2,4
			c-3.4,0-5.4-2.6-5.4-6.5c0-7.6,6.8-9,13.2-9V86.3z M147.7,108c-0.6,0.5-1.4,0.6-2.1,0.2c-3-2.5-3.5-3.6-5.1-5.9
			c-4.9,5-8.3,6.5-14.7,6.5c-7.5,0-13.3-4.6-13.3-13.9c0-7.2,3.9-12.1,9.5-14.5c4.8-2.1,11.6-2.5,16.7-3.1v-1.2
			c0-2.1,0.2-4.6-1.1-6.5c-1.1-1.6-3.2-2.3-5-2.3c-3.4,0-6.4,1.7-7.2,5.3c-0.2,0.8-0.7,1.6-1.5,1.6l-8.6-0.9
			c-0.7-0.2-1.5-0.7-1.3-1.9c2-10.5,11.4-13.6,19.9-13.6c4.3,0,10,1.2,13.4,4.4c4.3,4,3.9,9.4,3.9,15.3v13.9c0,4.2,1.7,6,3.4,8.2
			c0.6,0.8,0.7,1.8,0,2.4C152.8,103.7,149.5,106.5,147.7,108L147.7,108z"/>
	</g>
</g>
</svg>
