<?xml version="1.0" encoding="UTF-8" standalone="no"?>
<svg
   xmlns:dc="http://purl.org/dc/elements/1.1/"
   xmlns:cc="http://creativecommons.org/ns#"
   xmlns:rdf="http://www.w3.org/1999/02/22-rdf-syntax-ns#"
   xmlns:svg="http://www.w3.org/2000/svg"
   xmlns="http://www.w3.org/2000/svg"
   xmlns:sodipodi="http://sodipodi.sourceforge.net/DTD/sodipodi-0.dtd"
   xmlns:inkscape="http://www.inkscape.org/namespaces/inkscape"
   width="244.06848"
   height="51.421482"
   viewBox="0 0 244.06848 51.421482"
   version="1.1"
   id="svg3532"
   inkscape:version="0.91 r"
   sodipodi:docname="jumia-logo-head.svg">
  <metadata
     id="metadata3551">
    <rdf:RDF>
      <cc:Work
         rdf:about="">
        <dc:format>image/svg+xml</dc:format>
        <dc:type
           rdf:resource="http://purl.org/dc/dcmitype/StillImage" />
        <dc:title>Group 28</dc:title>
      </cc:Work>
    </rdf:RDF>
  </metadata>
  <sodipodi:namedview
     pagecolor="#ffffff"
     bordercolor="#666666"
     borderopacity="1"
     objecttolerance="10"
     gridtolerance="10"
     guidetolerance="10"
     inkscape:pageopacity="0"
     inkscape:pageshadow="2"
     inkscape:window-width="1079"
     inkscape:window-height="614"
     id="namedview3549"
     showgrid="false"
     fit-margin-top="0"
     fit-margin-left="0"
     fit-margin-right="0"
     fit-margin-bottom="0"
     inkscape:zoom="1.5733333"
     inkscape:cx="145.0008"
     inkscape:cy="-5.8882346"
     inkscape:window-x="0"
     inkscape:window-y="30"
     inkscape:window-maximized="0"
     inkscape:current-layer="Group-28" />
  <!-- Generator: Sketch 3.8.2 (29753) - http://www.bohemiancoding.com/sketch -->
  <title
     id="title3534">Group 28</title>
  <desc
     id="desc3536">Created with Sketch.</desc>
  <defs
     id="defs3538" />
  <g
     id="i10-Last-minute"
     style="fill:none;fill-rule:evenodd;stroke:none;stroke-width:1"
     transform="translate(0,-0.863636)">
    <g
       id="Group-28"
       transform="translate(0,0.863636)">
      <path
         d="m 38.815591,43.570188 c 0.991955,1.009352 2.145004,1.802225 3.430256,2.36102 1.313267,0.578155 2.722841,1.025191 4.188448,1.328789 1.476113,0.302717 2.990748,0.488396 4.498379,0.549995 1.464732,0.066 2.937343,0.09944 4.375808,0.09944 l 10.05,0 c 6.955941,0 12.061926,-1.12463 15.174371,-3.344851 3.047656,-2.168302 4.592059,-5.599393 4.592059,-10.194713 l 0,-34.369867 -7.827951,0 0,33.832191 c 0,4.040926 -3.579092,6.088668 -10.64097,6.088668 l -12.363102,0 c -7.172193,0 -10.809069,-2.047742 -10.809069,-6.088668 l 0,-33.832191 -7.941767,0 0,34.369867 c 0,2.174461 0.301176,4.018925 0.896524,5.480593 0.592721,1.479267 1.392939,2.728857 2.377014,3.719728"
         id="Fill-11"
         inkscape:connector-curvature="0"
         style="fill:#ffffff" />
      <path
         d="m 162.18621,48.245588 0,-43.0835521 c 0,-1.5672666 -0.41849,-2.8362157 -1.24323,-3.7734078 C 160.12438,0.45407612 159.07114,0 157.72285,0 c -1.89023,0 -3.30856,0.75855353 -4.33728,2.3196602 L 128.74429,38.270873 103.58908,2.2624607 C 102.48944,0.74271366 101.00895,0 99.068815,0 c -1.279998,0 -2.291214,0.40655653 -3.092307,1.2416694 -0.806347,0.8421528 -1.1977,1.995823 -1.1977,3.5243699 l 0,43.4795487 7.944392,0 0,-33.699312 21.05869,31.385812 c 1.25723,1.871744 2.86029,2.781656 4.90286,2.781656 0.90966,0 1.78692,-0.231438 2.60553,-0.687274 0.82298,-0.459356 1.55753,-1.16423 2.17827,-2.094382 l 20.77589,-31.128854 0,33.442354 7.94177,0 z"
         id="Fill-13"
         inkscape:connector-curvature="0"
         style="fill:#ffffff" />
      <polygon
         id="Fill-15"
         points="169.81203,0 169.81203,47.909431 177.7538,47.909431 177.7538,0 "
         style="fill:#ffffff" />
      <path
         d="m 212.8241,10.400631 10.03424,16.48314 -19.87499,0 9.84075,-16.48314 z m 14.76025,24.470831 7.59944,13.307247 8.8847,0 -26.296,-45.2298542 C 216.55816,0.96887173 215.03039,0 213.11302,0 c -1.87535,0 -3.3821,0.98911156 -4.60607,3.0227742 l -26.84757,45.1559348 9.38374,0 7.42346,-13.307247 29.11777,0 z"
         id="Fill-17"
         inkscape:connector-curvature="0"
         style="fill:#ffffff" />
      <path
         d="m 18.699181,26.613613 c 0.231135,7.520416 -1.679232,11.845579 -6.01214,13.590604 C 8.8216567,41.756524 2.9075746,42.305639 0,42.488677 l 0.08054708,8.932804 C 1.3728025,51.329962 4.8450822,50.953325 11.852679,49.414218 21.928944,47.199277 26.42207,40.165497 26.42207,26.607453 L 26.800291,0.02991974 18.890918,0 18.877785,8.5843268 18.699181,26.613613 Z"
         id="Fill-18"
         inkscape:connector-curvature="0"
         style="fill:#ffffff" />
    </g>
  </g>
</svg>
