<?xml version="1.0" encoding="utf-8"?>
<!-- Generator: Adobe Illustrator 20.1.0, SVG Export Plug-In . SVG Version: 6.00 Build 0)  -->
<svg version="1.1" id="Layer_1" xmlns="http://www.w3.org/2000/svg" xmlns:xlink="http://www.w3.org/1999/xlink" x="0px" y="0px"
	 viewBox="0 0 762.2 81.9" style="enable-background:new 0 0 762.2 81.9;" xml:space="preserve">
<style type="text/css">
	.st0{fill:#D8D8D8;}
	.st1{fill:#6B6B6B;}
	.st2{fill:#4F2C7E;}
</style>
<g>
	<path class="st0" d="M609.6,32.7c0,0.1,0,0.3-0.1,0.4c-0.1,0.1-0.2,0.2-0.3,0.2c-0.9,0.1-1.5,0.2-2,0.4c-0.5,0.2-0.8,0.4-1.1,0.7
		c-0.2,0.3-0.5,0.8-0.6,1.7L602,51.2c-0.1,0.6-0.2,0.9-0.2,1.1c0,0.5,0.2,0.8,0.6,1.1c0.4,0.2,1.2,0.4,2.2,0.5
		c0.1,0,0.2,0.1,0.2,0.3c0,0.2,0,0.3-0.1,0.4s-0.2,0.2-0.2,0.2c-0.8,0-1.7,0-2.8-0.1c-0.9-0.1-1.6-0.1-2.2-0.1c-0.6,0-1.3,0-2.3,0.1
		c-1,0.1-1.9,0.1-2.5,0.1c-0.1,0-0.2-0.1-0.2-0.3c0-0.1,0-0.3,0.1-0.4s0.2-0.2,0.3-0.2c0.9-0.1,1.5-0.2,2-0.4
		c0.5-0.2,0.8-0.4,1.1-0.7c0.2-0.3,0.5-0.8,0.7-1.7l3.6-15.2c0.1-0.5,0.2-0.8,0.2-1.1c0-0.5-0.2-0.9-0.6-1.1
		c-0.4-0.2-1.2-0.4-2.2-0.5c-0.1,0-0.2-0.1-0.2-0.3c0-0.1,0-0.3,0.1-0.4c0.1-0.1,0.2-0.2,0.3-0.2c0.7,0,1.7,0,2.7,0.1
		c0.9,0.1,1.7,0.1,2.2,0.1s1.3,0,2.2-0.1c1-0.1,1.9-0.1,2.5-0.1C609.6,32.4,609.6,32.5,609.6,32.7z"/>
	<path class="st0" d="M621.2,42.6c0,0.7-0.2,1.6-0.7,2.7l-2.5,6.1c-0.4,0.9-0.5,1.4-0.5,1.6c0,0.3,0.1,0.4,0.3,0.4
		c0.4,0,1.1-0.6,2-1.8c0.4-0.5,0.7-0.8,0.8-0.8c0.1,0,0.2,0.1,0.3,0.2s0.1,0.2,0.1,0.4c0,0.2-0.4,0.7-1.1,1.5
		c-0.8,0.8-1.5,1.4-2.2,1.9c-0.7,0.5-1.3,0.7-1.9,0.7c-0.5,0-0.8-0.1-1.1-0.3c-0.3-0.2-0.4-0.5-0.4-0.9c0-0.6,0.2-1.5,0.7-2.6
		l2.6-6.2c0.3-0.7,0.5-1.3,0.5-1.7c0-0.6-0.2-0.9-0.7-0.9c-0.6,0-1.5,0.8-2.7,2.3c-1.2,1.6-2.5,3.7-3.9,6.3l-1.1,3.1
		c-0.1,0.2-0.3,0.3-0.6,0.4c-0.3,0.1-0.7,0.2-1,0.2c-0.3,0-0.6,0-0.9-0.1c-0.3-0.1-0.4-0.2-0.4-0.3l0-0.1l3.4-9.9
		c0.3-0.7,0.4-1.3,0.4-1.6c0-0.3-0.1-0.4-0.3-0.4c-0.3,0-1,0.6-1.8,1.7c-0.5,0.6-0.7,0.9-0.8,0.9c-0.1,0-0.3-0.1-0.4-0.2
		c-0.1-0.1-0.2-0.2-0.2-0.4c0-0.2,0.4-0.6,1.1-1.5c0.7-0.8,1.4-1.5,2.1-1.9c0.7-0.5,1.2-0.7,1.7-0.7c1.1,0,1.6,0.5,1.6,1.5
		c0,0.6-0.2,1.4-0.5,2.3l-1,2.7c1.2-2.1,2.4-3.6,3.6-4.8c1.2-1.1,2.3-1.7,3.3-1.7c0.6,0,1.1,0.2,1.5,0.6
		C621,41.4,621.2,41.9,621.2,42.6z"/>
	<path class="st0" d="M633.2,41.7c0,0.2-0.1,0.4-0.2,0.6c-0.1,0.2-0.3,0.3-0.4,0.3l-3.3-0.1l-3,8.8c-0.2,0.7-0.3,1.2-0.3,1.5
		c0,0.3,0.1,0.5,0.4,0.5c0.5,0,1.5-0.7,3-2c0.6-0.5,0.9-0.8,1-0.8c0.2,0,0.3,0.1,0.4,0.2c0.1,0.1,0.2,0.2,0.2,0.4
		c0,0.2-0.5,0.7-1.4,1.5c-0.9,0.9-1.8,1.5-2.7,2c-0.8,0.5-1.5,0.8-2,0.8c-1.2,0-1.8-0.6-1.8-1.8c0-0.6,0.1-1.2,0.4-2l3.1-9l-2.5,0.1
		c-0.2,0-0.3-0.2-0.3-0.5c0-0.2,0.1-0.4,0.2-0.6c0.1-0.2,0.3-0.3,0.4-0.3h2.6l1.2-3.5c0.1-0.2,0.2-0.3,0.6-0.4
		c0.3-0.1,0.7-0.2,1-0.2c0.3,0,0.6,0,0.8,0.1c0.3,0.1,0.4,0.2,0.4,0.3l0,0.1l-1.2,3.5h3.1C633,41.2,633.2,41.4,633.2,41.7z"/>
	<path class="st0" d="M643.1,42.9c0,1.5-0.7,2.8-2.2,4c-1.5,1.2-3.2,1.8-5.1,1.8c-0.1,0.6-0.1,1.2-0.1,1.7c0,0.9,0.1,1.6,0.4,2
		c0.3,0.4,0.7,0.6,1.3,0.6c1.4,0,2.6-0.8,3.7-2.4l0.1,0c0.1,0,0.2,0.1,0.3,0.2c0.1,0.1,0.1,0.2,0.1,0.3c0,0.2-0.3,0.8-1,1.6
		c-0.7,0.8-1.3,1.5-2.1,2c-0.7,0.5-1.4,0.7-2.1,0.7c-1.1,0-1.9-0.4-2.6-1.2c-0.7-0.8-1-1.8-1-2.9c0-1.5,0.4-3.2,1.2-4.9
		c0.8-1.7,1.8-3.1,3.1-4.2c1.3-1.1,2.4-1.7,3.5-1.7c0.8,0,1.4,0.2,1.8,0.7C642.9,41.5,643.1,42.1,643.1,42.9z M640.8,43.4
		c0-0.9-0.4-1.4-1.2-1.4c-0.8,0-1.5,0.5-2.2,1.6c-0.7,1.1-1.2,2.4-1.4,3.9c0.9,0,1.7-0.2,2.4-0.6c0.7-0.4,1.3-0.9,1.7-1.6
		C640.6,44.6,640.8,44,640.8,43.4z"/>
	<path class="st0" d="M657.1,42.2c0,0.5-0.2,1-0.5,1.3S656,44,655.5,44c-0.4,0-0.8-0.2-1.1-0.6c-0.3-0.3-0.6-0.5-0.9-0.5
		c-0.7,0-1.7,1.1-3,3.3c-1.3,2.2-2.7,4.9-4.1,8.2c-0.2,0.4-0.6,0.5-1.5,0.5c-0.3,0-0.5,0-0.8-0.1c-0.2-0.1-0.3-0.2-0.3-0.3l0-0.1
		l3.4-9.9c0.3-0.8,0.4-1.4,0.4-1.6c0-0.3-0.1-0.4-0.3-0.4c-0.3,0-1,0.6-1.8,1.7c-0.4,0.6-0.7,0.8-0.8,0.8c-0.2,0-0.3-0.1-0.4-0.2
		c-0.1-0.1-0.2-0.2-0.2-0.4c0-0.2,0.4-0.6,1.1-1.5c0.7-0.8,1.4-1.5,2.1-1.9c0.7-0.5,1.2-0.7,1.7-0.7c1.1,0,1.7,0.5,1.7,1.5
		c0,0.5-0.2,1.3-0.5,2.3l-0.6,1.7c2-3.7,3.8-5.5,5.4-5.5c0.6,0,1.1,0.2,1.5,0.5C656.9,41.3,657.1,41.7,657.1,42.2z"/>
	<path class="st0" d="M671.2,42.6c0,0.7-0.2,1.6-0.7,2.7l-2.5,6.1c-0.4,0.9-0.5,1.4-0.5,1.6c0,0.3,0.1,0.4,0.3,0.4
		c0.4,0,1.1-0.6,2-1.8c0.4-0.5,0.7-0.8,0.8-0.8c0.1,0,0.2,0.1,0.3,0.2s0.1,0.2,0.1,0.4c0,0.2-0.4,0.7-1.1,1.5
		c-0.8,0.8-1.5,1.4-2.2,1.9c-0.7,0.5-1.3,0.7-1.9,0.7c-0.5,0-0.8-0.1-1.1-0.3s-0.4-0.5-0.4-0.9c0-0.6,0.2-1.5,0.7-2.6l2.6-6.2
		c0.3-0.7,0.5-1.3,0.5-1.7c0-0.6-0.2-0.9-0.7-0.9c-0.6,0-1.5,0.8-2.7,2.3c-1.2,1.6-2.5,3.7-3.9,6.3l-1.1,3.1
		c-0.1,0.2-0.3,0.3-0.6,0.4c-0.3,0.1-0.7,0.2-1,0.2c-0.3,0-0.6,0-0.9-0.1c-0.3-0.1-0.4-0.2-0.4-0.3l0-0.1l3.4-9.9
		c0.3-0.7,0.4-1.3,0.4-1.6c0-0.3-0.1-0.4-0.3-0.4c-0.3,0-1,0.6-1.8,1.7c-0.5,0.6-0.7,0.9-0.8,0.9c-0.1,0-0.3-0.1-0.4-0.2
		c-0.1-0.1-0.2-0.2-0.2-0.4c0-0.2,0.4-0.6,1.1-1.5c0.7-0.8,1.4-1.5,2.1-1.9c0.7-0.5,1.2-0.7,1.7-0.7c1.1,0,1.6,0.5,1.6,1.5
		c0,0.6-0.2,1.4-0.5,2.3l-1,2.7c1.2-2.1,2.4-3.6,3.6-4.8c1.2-1.1,2.3-1.7,3.3-1.7c0.6,0,1.1,0.2,1.5,0.6
		C671,41.4,671.2,41.9,671.2,42.6z"/>
	<path class="st0" d="M687.1,40.7l-4.6,10.6c-0.3,0.7-0.5,1.3-0.5,1.6c0,0.3,0.1,0.4,0.3,0.4c0.3,0,1-0.7,2.1-2
		c0.5-0.6,0.8-0.9,0.8-0.9c0.1,0,0.2,0.1,0.4,0.2c0.1,0.1,0.2,0.2,0.2,0.4c0,0.2-0.4,0.7-1.2,1.5c-0.8,0.9-1.5,1.6-2.2,2.1
		c-0.7,0.5-1.3,0.7-1.8,0.7c-1.1,0-1.6-0.5-1.6-1.5c0-0.9,0.5-2.3,1.4-3.9c-0.8,1.5-1.8,2.7-3.1,3.8c-1.3,1.1-2.4,1.6-3.4,1.6
		c-0.5,0-1-0.2-1.3-0.6c-0.3-0.4-0.5-1-0.5-1.7c0-1.4,0.6-3,1.8-4.8c1.2-1.8,2.6-3.4,4.4-4.8c1.7-1.4,3.2-2,4.3-2
		c0.6,0,1,0.1,1.4,0.4l0.4-0.9c0.2-0.4,0.7-0.5,1.7-0.5C686.7,40.2,687.1,40.3,687.1,40.7L687.1,40.7z M683.1,43.3
		c0-0.6-0.2-1-0.7-1c-0.9,0-2,0.5-3.1,1.5c-1.2,1-2.2,2.3-3.1,3.7c-0.9,1.5-1.3,2.7-1.3,3.7c0,0.6,0.1,1,0.3,1.2
		c0.2,0.2,0.5,0.4,0.9,0.4c0.5,0,1.4-0.6,2.5-1.9c1.1-1.3,2.2-2.7,3.1-4.3C682.6,45.2,683.1,44,683.1,43.3z"/>
	<path class="st0" d="M698.1,41.7c0,0.2-0.1,0.4-0.2,0.6c-0.1,0.2-0.3,0.3-0.4,0.3l-3.3-0.1l-3,8.8c-0.2,0.7-0.3,1.2-0.3,1.5
		c0,0.3,0.1,0.5,0.4,0.5c0.5,0,1.5-0.7,3-2c0.6-0.5,0.9-0.8,1-0.8c0.2,0,0.3,0.1,0.4,0.2c0.1,0.1,0.2,0.2,0.2,0.4
		c0,0.2-0.5,0.7-1.4,1.5c-0.9,0.9-1.8,1.5-2.7,2c-0.8,0.5-1.5,0.8-2,0.8c-1.2,0-1.8-0.6-1.8-1.8c0-0.6,0.1-1.2,0.4-2l3.1-9l-2.5,0.1
		c-0.2,0-0.3-0.2-0.3-0.5c0-0.2,0.1-0.4,0.2-0.6c0.1-0.2,0.3-0.3,0.4-0.3h2.6l1.2-3.5c0.1-0.2,0.2-0.3,0.6-0.4
		c0.3-0.1,0.7-0.2,1-0.2c0.3,0,0.6,0,0.8,0.1c0.3,0.1,0.4,0.2,0.4,0.3l0,0.1l-1.2,3.5h3.1C698,41.2,698.1,41.4,698.1,41.7z"/>
	<path class="st0" d="M705.7,41.8c0,0.7-0.2,1.5-0.7,2.4l-3.5,7.1c-0.4,0.7-0.5,1.3-0.5,1.6c0,0.3,0.1,0.4,0.3,0.4
		c0.4,0,1.1-0.6,2.2-1.9c0.5-0.6,0.8-0.9,0.9-0.9c0.1,0,0.3,0.1,0.4,0.2c0.1,0.1,0.2,0.2,0.2,0.4c0,0.2-0.4,0.7-1.2,1.5
		c-0.8,0.9-1.6,1.6-2.4,2.1c-0.7,0.5-1.4,0.8-1.8,0.8c-1,0-1.5-0.5-1.5-1.4c0-0.5,0.2-1.3,0.7-2.4l3.5-7.1c0.4-0.7,0.5-1.3,0.5-1.6
		c0-0.2-0.1-0.3-0.3-0.3c-0.4,0-1.1,0.7-2.3,2c-0.5,0.5-0.7,0.8-0.8,0.8c-0.1,0-0.3-0.1-0.3-0.2c-0.1-0.1-0.1-0.2-0.1-0.4
		c0-0.2,0.4-0.7,1.2-1.5c0.8-0.9,1.6-1.6,2.3-2.1c0.7-0.5,1.4-0.7,1.9-0.7C705.2,40.4,705.7,40.9,705.7,41.8z M707.6,34.4
		c0,0.5-0.2,0.9-0.5,1.3c-0.4,0.4-0.8,0.5-1.3,0.5c-0.5,0-1-0.2-1.3-0.5c-0.4-0.4-0.5-0.8-0.5-1.3c0-0.5,0.2-0.9,0.5-1.3
		c0.4-0.4,0.8-0.5,1.3-0.5c0.5,0,0.9,0.2,1.3,0.5C707.4,33.5,707.6,33.9,707.6,34.4z"/>
	<path class="st0" d="M719,45.4c0,1.5-0.4,3.1-1.2,4.6c-0.8,1.6-1.8,2.8-3.1,3.8c-1.3,1-2.5,1.5-3.8,1.5c-1.1,0-2-0.5-2.7-1.4
		c-0.8-0.9-1.1-2.1-1.1-3.5c0-1.5,0.4-3.1,1.2-4.6c0.8-1.6,1.8-2.8,3.1-3.8c1.3-1,2.5-1.5,3.8-1.5c1.1,0,2,0.5,2.7,1.4
		C718.6,42.8,719,44,719,45.4z M716.3,43.3c0-0.7-0.1-1.2-0.3-1.4c-0.2-0.3-0.5-0.4-1-0.4c-0.7,0-1.5,0.6-2.4,1.8
		c-0.9,1.2-1.6,2.6-2.2,4.3c-0.6,1.7-0.9,3.3-0.9,4.9c0,0.7,0.1,1.2,0.3,1.5c0.2,0.3,0.5,0.4,1,0.4c0.7,0,1.5-0.6,2.4-1.8
		c0.9-1.2,1.6-2.6,2.2-4.3C716,46.5,716.3,44.9,716.3,43.3z"/>
	<path class="st0" d="M734.5,42.6c0,0.7-0.2,1.6-0.7,2.7l-2.5,6.1c-0.4,0.9-0.5,1.4-0.5,1.6c0,0.3,0.1,0.4,0.3,0.4
		c0.4,0,1.1-0.6,2-1.8c0.4-0.5,0.7-0.8,0.8-0.8c0.1,0,0.2,0.1,0.3,0.2c0.1,0.1,0.1,0.2,0.1,0.4c0,0.2-0.4,0.7-1.1,1.5
		c-0.8,0.8-1.5,1.4-2.2,1.9c-0.7,0.5-1.3,0.7-1.9,0.7c-0.5,0-0.8-0.1-1.1-0.3c-0.3-0.2-0.4-0.5-0.4-0.9c0-0.6,0.2-1.5,0.7-2.6
		l2.6-6.2c0.3-0.7,0.5-1.3,0.5-1.7c0-0.6-0.2-0.9-0.7-0.9c-0.6,0-1.5,0.8-2.7,2.3c-1.2,1.6-2.5,3.7-3.9,6.3l-1.1,3.1
		c-0.1,0.2-0.3,0.3-0.6,0.4c-0.3,0.1-0.7,0.2-1,0.2c-0.3,0-0.6,0-0.9-0.1c-0.3-0.1-0.4-0.2-0.4-0.3l0-0.1l3.4-9.9
		c0.3-0.7,0.4-1.3,0.4-1.6c0-0.3-0.1-0.4-0.3-0.4c-0.3,0-1,0.6-1.8,1.7c-0.5,0.6-0.7,0.9-0.8,0.9c-0.1,0-0.3-0.1-0.4-0.2
		c-0.1-0.1-0.2-0.2-0.2-0.4c0-0.2,0.4-0.6,1.1-1.5c0.7-0.8,1.4-1.5,2.1-1.9c0.7-0.5,1.2-0.7,1.7-0.7c1.1,0,1.6,0.5,1.6,1.5
		c0,0.6-0.2,1.4-0.5,2.3l-1,2.7c1.2-2.1,2.4-3.6,3.6-4.8c1.2-1.1,2.3-1.7,3.3-1.7c0.6,0,1.1,0.2,1.5,0.6
		C734.3,41.4,734.5,41.9,734.5,42.6z"/>
	<path class="st0" d="M750.4,40.7l-4.6,10.6c-0.3,0.7-0.5,1.3-0.5,1.6c0,0.3,0.1,0.4,0.3,0.4c0.3,0,1-0.7,2.1-2
		c0.5-0.6,0.8-0.9,0.8-0.9c0.1,0,0.2,0.1,0.4,0.2c0.1,0.1,0.2,0.2,0.2,0.4c0,0.2-0.4,0.7-1.2,1.5c-0.8,0.9-1.5,1.6-2.2,2.1
		c-0.7,0.5-1.3,0.7-1.8,0.7c-1.1,0-1.6-0.5-1.6-1.5c0-0.9,0.5-2.3,1.4-3.9c-0.8,1.5-1.8,2.7-3.1,3.8c-1.3,1.1-2.4,1.6-3.4,1.6
		c-0.5,0-1-0.2-1.3-0.6c-0.3-0.4-0.5-1-0.5-1.7c0-1.4,0.6-3,1.8-4.8c1.2-1.8,2.6-3.4,4.4-4.8c1.7-1.4,3.2-2,4.3-2
		c0.6,0,1,0.1,1.4,0.4l0.4-0.9c0.2-0.4,0.7-0.5,1.7-0.5C750,40.2,750.4,40.3,750.4,40.7L750.4,40.7z M746.4,43.3c0-0.6-0.2-1-0.7-1
		c-0.9,0-2,0.5-3.1,1.5c-1.2,1-2.2,2.3-3.1,3.7c-0.9,1.5-1.3,2.7-1.3,3.7c0,0.6,0.1,1,0.3,1.2c0.2,0.2,0.5,0.4,0.9,0.4
		c0.5,0,1.4-0.6,2.5-1.9c1.1-1.3,2.2-2.7,3.1-4.3C745.9,45.2,746.4,44,746.4,43.3z"/>
	<path class="st0" d="M761.5,31.6c0,0.2-0.1,0.5-0.2,0.8l-7,18.2c-0.4,1.1-0.6,1.7-0.6,1.9c0,0.3,0.1,0.5,0.4,0.5
		c0.5,0,1.2-0.6,2.2-1.9c0.4-0.5,0.7-0.8,0.8-0.8c0.1,0,0.3,0.1,0.4,0.2c0.1,0.1,0.2,0.3,0.2,0.4c0,0.2-0.4,0.7-1.1,1.6
		c-0.8,0.9-1.5,1.6-2.2,2.1c-0.7,0.5-1.3,0.8-1.8,0.8c-1.1,0-1.7-0.6-1.7-1.7c0-0.5,0.2-1.2,0.5-2.1l5.9-15.3
		c0.2-0.6,0.4-1.1,0.4-1.5c0-0.4-0.5-0.7-1.4-0.8c-0.2,0-0.3-0.2-0.3-0.4c0-0.3,0.1-0.4,0.3-0.4c0.7-0.1,1.5-0.4,2.5-0.7
		c1-0.4,1.7-0.7,2.2-1c0.2-0.2,0.4-0.2,0.5-0.2C761.4,31.3,761.5,31.4,761.5,31.6z"/>
</g>
<g>
	<path class="st1" d="M8.3,55.2h2.3V32.9h8.3v-2.1H0v2.1h8.3V55.2z"/>
	<path class="st1" d="M34.3,55.2h2.3V43.6h13.6v11.5h2.3V30.8h-2.3v10.7H36.6V30.8h-2.3V55.2z"/>
	<path class="st1" d="M70.8,55.2h15.4v-2.1H73.1v-9.5h11.8v-2.1H73.1v-8.7h12.6v-2.1H70.8V55.2z"/>
	<path class="st2" d="M108.7,55.2h3.1l9.6-24.3h-3.6l-7.4,19.8h-0.1l-7.1-19.8h-3.8L108.7,55.2z"/>
	<path class="st2" d="M136,55.2h3.3V30.8H136V55.2z"/>
	<path class="st2" d="M157.2,55.2h3.3V44.4h3.7l6.2,10.7h4.1l-6.9-11.1c0.9-0.1,1.7-0.3,2.5-0.7c0.7-0.4,1.4-0.9,1.9-1.5
		c0.5-0.6,0.9-1.2,1.2-2c0.3-0.7,0.4-1.5,0.4-2.3c0-0.8-0.1-1.5-0.3-2.4c-0.2-0.8-0.6-1.5-1.2-2.2c-0.6-0.7-1.4-1.2-2.4-1.6
		c-1-0.4-2.3-0.6-3.8-0.6h-8.6V55.2z M160.5,33.7h4.3c0.6,0,1.3,0.1,1.9,0.2c0.6,0.1,1.2,0.3,1.7,0.6c0.5,0.3,0.9,0.7,1.2,1.2
		c0.3,0.5,0.4,1.2,0.4,2c0,0.8-0.1,1.5-0.4,2c-0.3,0.5-0.7,0.9-1.2,1.2c-0.5,0.3-1.1,0.5-1.7,0.6c-0.6,0.1-1.3,0.2-1.9,0.2h-4.3
		V33.7z"/>
	<path class="st2" d="M194.4,55.2h3.3V33.9h7.8v-3.1h-19v3.1h7.8V55.2z"/>
	<path class="st2" d="M220.3,30.8v15.4c0,1.4,0.2,2.7,0.7,3.9c0.5,1.2,1.1,2.2,2,3c0.8,0.8,1.8,1.5,3,2c1.1,0.5,2.4,0.7,3.7,0.7
		c1.3,0,2.6-0.2,3.7-0.7c1.1-0.5,2.1-1.1,3-2c0.8-0.8,1.5-1.8,2-3c0.5-1.2,0.7-2.4,0.7-3.9V30.8h-3.3v14.9c0,0.8-0.1,1.5-0.3,2.4
		c-0.2,0.8-0.5,1.6-1,2.3c-0.5,0.7-1.1,1.2-1.9,1.7c-0.8,0.4-1.7,0.7-2.9,0.7c-1.1,0-2.1-0.2-2.9-0.7c-0.8-0.4-1.4-1-1.9-1.7
		c-0.5-0.7-0.8-1.4-1-2.3c-0.2-0.8-0.3-1.6-0.3-2.4V30.8H220.3z"/>
	<path class="st2" d="M251.4,55.2h3.8l2.4-6h11.6l2.4,6h3.8l-10.4-24.3h-3L251.4,55.2z M258.8,46.3l4.6-11.2h0.1l4.5,11.2H258.8z"/>
	<path class="st2" d="M290.4,55.2h14.5v-3.1h-11.2V30.8h-3.3V55.2z"/>
	<path class="st1" d="M320.1,55.2h2.3V43.6h11.4v-2.1h-11.4v-8.7h12.3v-2.1h-14.6V55.2z"/>
	<path class="st1" d="M350.2,48.1c0.6,1.6,1.5,2.9,2.6,4.1c1.1,1.1,2.4,2,4,2.6c1.5,0.6,3.2,0.9,5.1,0.9c1.9,0,3.6-0.3,5.1-0.9
		c1.5-0.6,2.9-1.5,4-2.6c1.1-1.1,2-2.5,2.6-4.1c0.6-1.6,0.9-3.3,0.9-5.1c0-1.9-0.3-3.6-0.9-5.1c-0.6-1.6-1.5-2.9-2.6-4
		c-1.1-1.1-2.4-2-4-2.7c-1.5-0.6-3.2-1-5.1-1c-1.9,0-3.6,0.3-5.1,1c-1.5,0.6-2.9,1.5-4,2.7c-1.1,1.1-2,2.5-2.6,4
		c-0.6,1.6-0.9,3.3-0.9,5.1C349.3,44.8,349.6,46.6,350.2,48.1z M352.3,38.8c0.5-1.3,1.2-2.4,2.1-3.4c0.9-1,2-1.7,3.2-2.3
		c1.3-0.5,2.7-0.8,4.3-0.8c1.6,0,3,0.3,4.3,0.8c1.3,0.5,2.4,1.3,3.2,2.3c0.9,1,1.6,2.1,2.1,3.4c0.5,1.3,0.7,2.7,0.7,4.2
		c0,1.5-0.2,2.9-0.7,4.2c-0.5,1.3-1.2,2.4-2.1,3.4c-0.9,1-2,1.7-3.2,2.3c-1.3,0.5-2.7,0.8-4.3,0.8c-1.6,0-3-0.3-4.3-0.8
		c-1.3-0.5-2.4-1.3-3.2-2.3s-1.6-2.1-2.1-3.4c-0.5-1.3-0.7-2.7-0.7-4.2C351.6,41.5,351.8,40.1,352.3,38.8z"/>
	<path class="st1" d="M393.5,32.9h4.8c1.2,0,2.2,0.1,2.9,0.4c0.7,0.3,1.3,0.7,1.7,1.1c0.4,0.4,0.7,0.9,0.8,1.4
		c0.1,0.5,0.2,1,0.2,1.4s-0.1,0.9-0.2,1.4c-0.1,0.5-0.4,1-0.8,1.4c-0.4,0.4-1,0.8-1.7,1.1c-0.7,0.3-1.7,0.4-2.9,0.4h-4.8V32.9z
		 M391.2,55.2h2.3V43.6h4.2l6.8,11.5h2.6L400,43.5c0.7-0.1,1.4-0.3,2.1-0.5c0.7-0.2,1.4-0.6,2-1c0.6-0.5,1.1-1.1,1.5-1.8
		c0.4-0.8,0.6-1.7,0.6-2.9c0-1.1-0.2-1.9-0.5-2.7c-0.3-0.7-0.8-1.3-1.3-1.8c-0.5-0.5-1.1-0.8-1.8-1.1c-0.7-0.3-1.3-0.4-2-0.5
		c-0.6-0.1-1.2-0.2-1.8-0.2c-0.5,0-1,0-1.3,0h-6.4V55.2z"/>
	<path class="st1" d="M443.3,42h-8.1v2.1h5.8v8.2c-0.9,0.5-2,0.9-3.1,1.1c-1.1,0.2-2.4,0.3-3.7,0.3c-1.6,0-3-0.3-4.3-0.8
		c-1.3-0.5-2.4-1.3-3.2-2.3s-1.6-2.1-2.1-3.4c-0.5-1.3-0.7-2.7-0.7-4.2c0-1.5,0.2-2.9,0.7-4.2c0.5-1.3,1.2-2.4,2.1-3.4
		c0.9-1,2-1.7,3.2-2.3c1.3-0.5,2.7-0.8,4.3-0.8c0.7,0,1.3,0.1,2,0.2c0.7,0.1,1.3,0.4,2,0.6c0.6,0.3,1.2,0.6,1.8,1
		c0.5,0.4,1,0.8,1.4,1.2l1.6-1.7c-2.2-2.2-5.1-3.4-8.8-3.4c-1.9,0-3.6,0.3-5.1,1c-1.5,0.6-2.9,1.5-4,2.7c-1.1,1.1-2,2.5-2.6,4
		c-0.6,1.6-0.9,3.3-0.9,5.1c0,1.9,0.3,3.6,0.9,5.1c0.6,1.6,1.5,2.9,2.6,4.1c1.1,1.1,2.4,2,4,2.6c1.5,0.6,3.2,0.9,5.1,0.9
		c1.6,0,3.1-0.2,4.7-0.5c1.5-0.3,3-0.9,4.4-1.7V42z"/>
	<path class="st1" d="M461.7,55.2h15.4v-2.1H464v-9.5h11.8v-2.1H464v-8.7h12.6v-2.1h-14.9V55.2z"/>
	<path class="st1" d="M483,26.5c0,3.3,2.6,6,5.8,6c3.3,0,5.9-2.6,5.9-6c0-3.3-2.6-6-5.9-6C485.6,20.5,483,23.2,483,26.5z
		 M483.8,26.5c0-3,2.2-5.3,5-5.3c2.9,0,5.1,2.3,5.1,5.3c0,3-2.2,5.3-5.1,5.3C486,31.7,483.8,29.5,483.8,26.5z M486.9,29.8h0.7V27
		h1.4l1.4,2.7h0.8l-1.3-2.5c-0.1-0.3-0.2-0.4-0.2-0.4v0c0.7-0.2,1.3-0.8,1.3-1.8c0-1.2-0.8-1.9-1.9-1.9h-2.2V29.8z M487.6,26.4v-2.5
		h1.4c0.8,0,1.2,0.5,1.2,1.2c0,0.8-0.5,1.3-1.2,1.3H487.6z"/>
</g>
<rect x="540.7" y="20.5" class="st2" width="1.3" height="44.5"/>
</svg>
