<?xml version="1.0" encoding="UTF-8"?>
<svg width="534px" height="217px" viewBox="0 0 534 217" version="1.1" xmlns="http://www.w3.org/2000/svg" xmlns:xlink="http://www.w3.org/1999/xlink">
    <!-- Generator: Sketch 48.2 (47327) - http://www.bohemiancoding.com/sketch -->
    <title>logotip</title>
    <desc>Created with Sketch.</desc>
    <defs></defs>
    <g id="TIP---completo" stroke="none" stroke-width="1" fill="none" fill-rule="evenodd" transform="translate(-455.000000, -227.000000)">
        <g id="logotip" transform="translate(455.000000, 227.000000)">
            <path d="M495.635,102.778 C494.504,103.351 494.352,105.094 495.396,105.831 C496.479,106.778 498.359,105.873 498.342,104.449 C498.453,103.097 496.797,102.064 495.635,102.778 M36.367,101.966 C35.217,102.495 35.014,104.239 36.041,105.002 C37.037,105.934 38.817,105.235 39.008,103.912 C39.319,102.505 37.629,101.227 36.367,101.966 M330.977,26.692 C330.96,28.287 330.962,29.883 330.968,31.477 C330.861,31.895 331.302,32.035 331.575,32.212 C347.189,41.037 360.851,53.516 370.397,68.753 C370.413,54.733 370.429,40.714 370.39,26.692 C357.251,26.698 344.115,26.698 330.977,26.692 M320.792,26.703 C323.113,27.869 325.501,28.907 327.794,30.137 C327.798,28.989 327.809,27.843 327.784,26.698 C325.454,26.7 323.122,26.686 320.792,26.703 M205.672,26.698 C205.666,27.843 205.67,28.991 205.666,30.139 C208.01,28.924 210.395,27.78 212.801,26.695 C210.424,26.695 208.049,26.695 205.672,26.698 M163.469,26.69 C163.436,40.467 163.43,54.246 163.469,68.022 C164.147,67.189 164.664,66.244 165.289,65.375 C174.793,51.445 187.817,40.075 202.498,31.86 C202.524,30.139 202.506,28.419 202.51,26.695 C189.494,26.69 176.481,26.706 163.469,26.69 M394.259,23.468 C393.081,23.964 392.804,25.692 393.81,26.5 C394.747,27.416 396.488,26.878 396.784,25.61 C397.253,24.201 395.579,22.769 394.259,23.468 M137.998,23.423 C136.709,23.857 136.41,25.765 137.511,26.561 C138.535,27.468 140.342,26.738 140.465,25.385 C140.713,24.067 139.225,22.883 137.998,23.423 M437.072,15.059 C435.854,15.6 435.707,17.47 436.836,18.188 C437.867,18.999 439.52,18.265 439.703,16.991 C439.994,15.6 438.32,14.338 437.072,15.059 M95.676,15.024 C94.448,15.501 94.199,17.34 95.27,18.116 C96.274,19.024 98.051,18.325 98.223,16.996 C98.52,15.635 96.926,14.382 95.676,15.024 M395.546,2.465 C394.279,2.878 393.896,4.717 394.96,5.559 C395.913,6.494 397.687,5.906 397.948,4.614 C398.341,3.273 396.833,1.926 395.546,2.465 M135.508,2.428 C134.276,2.749 133.744,4.431 134.625,5.372 C135.453,6.438 137.33,6.098 137.737,4.813 C138.311,3.486 136.865,1.96 135.508,2.428 M132.051,4.325 C131.899,2.189 133.774,0.204 135.914,0.216 C137.535,0.118 139,1.174 139.711,2.586 C142.672,2.596 145.635,2.598 148.598,2.581 C149.063,2.553 149.522,2.73 149.832,3.078 C153.889,7.178 158,11.229 162.052,15.332 C231.395,15.384 300.736,15.346 370.081,15.348 C373.697,11.748 377.298,8.13 380.911,4.524 C381.687,3.888 382.219,2.812 383.269,2.596 C386.31,2.558 389.358,2.634 392.399,2.571 C392.991,1.902 393.435,1.03 394.315,0.663 C396.423,-0.526 399.397,0.717 399.985,3.073 C400.714,5.296 399.056,7.883 396.726,8.13 C394.937,8.438 393.231,7.312 392.435,5.757 C389.706,5.782 386.979,5.729 384.255,5.78 C383.12,6.672 382.192,7.81 381.135,8.796 C378.956,10.983 376.76,13.159 374.589,15.354 C394.407,15.372 414.228,15.329 434.051,15.374 C434.684,14.016 435.912,12.844 437.473,12.744 C439.566,12.46 441.658,14.131 441.838,16.234 C442.117,18.18 440.713,20.174 438.791,20.569 C437.072,21.007 435.18,20.111 434.357,18.558 C389.534,18.486 344.71,18.548 299.884,18.527 C298.512,18.56 297.135,18.438 295.775,18.629 C300.945,19.688 306.025,21.171 311.016,22.891 C311.689,23.099 312.333,23.456 313.042,23.535 C339.134,23.54 365.226,23.535 391.313,23.538 C392.101,21.944 393.885,20.856 395.679,21.208 C397.64,21.485 399.161,23.406 398.988,25.378 C398.923,27.456 396.988,29.221 394.917,29.108 C393.349,29.11 391.985,28.059 391.304,26.698 C385.396,26.695 379.488,26.695 373.581,26.698 C373.567,52.042 373.573,77.384 373.577,102.728 C413.317,102.748 453.059,102.71 492.799,102.746 C493.539,101.499 494.77,100.442 496.287,100.417 C498.596,100.204 500.721,102.358 500.482,104.665 C500.398,106.864 498.221,108.656 496.047,108.339 C494.596,108.205 493.406,107.171 492.781,105.901 C452.467,105.893 412.151,105.891 371.837,105.903 C371.103,105.861 370.448,105.215 370.406,104.479 C370.415,97.12 370.407,89.759 370.409,82.403 C370.368,79.958 370.491,77.502 370.351,75.063 C362.567,60.641 350.82,48.549 337.259,39.448 C321.07,28.611 302.216,21.959 282.902,19.637 C266.342,17.65 249.397,18.705 233.25,22.922 C217.692,26.976 202.864,33.999 190.115,43.825 C182.713,49.536 176.03,56.19 170.414,63.669 C167.843,67.027 165.639,70.638 163.446,74.247 C163.444,83.973 163.451,93.704 163.444,103.43 C163.516,104.35 162.686,105.181 161.764,105.105 C121.485,105.116 81.207,105.1 40.93,105.113 C40.207,106.646 38.576,107.754 36.846,107.555 C34.791,107.434 33.086,105.49 33.227,103.438 C33.248,101.418 35.041,99.629 37.065,99.618 C38.672,99.517 40.139,100.546 40.865,101.934 C80.668,101.942 120.469,101.94 160.274,101.934 C160.281,76.854 160.28,51.778 160.274,26.7 C154.301,26.692 148.33,26.692 142.358,26.7 C141.504,28.583 139.19,29.65 137.237,28.854 C135.074,28.107 134.018,25.34 135.1,23.335 C136.014,21.409 138.576,20.573 140.455,21.582 C141.302,21.977 141.886,22.742 142.346,23.535 C168.252,23.543 194.158,23.532 220.061,23.54 C220.49,23.548 220.91,23.452 221.311,23.301 C226.674,21.352 232.18,19.814 237.746,18.578 C224.926,18.462 212.098,18.56 199.276,18.527 C166.182,18.532 133.09,18.519 99.996,18.532 C99.164,19.938 97.549,20.907 95.886,20.638 C93.811,20.418 92.177,18.347 92.463,16.277 C92.615,14.212 94.61,12.534 96.67,12.731 C98.261,12.776 99.604,13.926 100.213,15.348 C119.324,15.356 138.436,15.372 157.547,15.34 C154.602,12.302 151.563,9.358 148.598,6.342 C148.313,6.076 148.035,5.683 147.59,5.759 C144.967,5.764 142.346,5.752 139.725,5.769 C139.052,7.114 137.703,8.149 136.16,8.165 C134.039,8.299 132.047,6.456 132.051,4.325" id="Fill-3" fill="#F5951A"></path>
            <path d="M250.199,30.748 C248.937,31.335 248.922,33.341 250.168,33.957 C251.273,34.646 252.842,33.761 252.89,32.48 C253.035,31.12 251.385,30.021 250.199,30.748 M282.191,30.562 C281.25,30.748 280.547,31.764 280.76,32.709 C280.936,33.651 281.932,34.36 282.885,34.162 C283.871,34.003 284.604,32.928 284.35,31.952 C284.146,31.017 283.131,30.343 282.191,30.562 M247.097,32.74 C246.836,30.637 248.535,28.562 250.646,28.4 C252.092,28.204 253.447,28.974 254.367,30.036 C262.646,28.972 271.052,28.982 279.336,29.945 C280.316,28.807 281.854,28.112 283.357,28.458 C285.389,28.813 286.854,30.937 286.49,32.962 C286.244,34.93 284.334,36.491 282.355,36.326 C280.529,36.288 278.979,34.831 278.613,33.077 C270.783,32.132 262.83,32.175 255.004,33.152 C254.592,34.814 253.156,36.222 251.404,36.321 C249.301,36.568 247.236,34.847 247.097,32.74" id="Fill-4" fill="#F5951A"></path>
            <path d="M241.92,92.932 C240.721,93.323 240.268,95.018 241.197,95.909 C242.051,96.924 243.861,96.524 244.254,95.272 C244.824,93.906 243.281,92.37 241.92,92.932 M213.238,45.494 C211.994,45.936 211.701,47.781 212.752,48.584 C213.766,49.544 215.623,48.804 215.748,47.428 C215.984,46.1 214.459,44.919 213.238,45.494 M215.641,43.548 C224.42,38.188 234.055,34.235 244.074,31.893 C244.078,51.578 244.065,71.261 244.082,90.946 C245.207,91.526 246.17,92.522 246.414,93.802 C246.936,95.878 245.457,98.181 243.346,98.557 C241.136,99.091 238.734,97.358 238.576,95.086 C238.346,93.384 239.385,91.734 240.891,90.989 C240.912,72.655 240.902,54.319 240.897,35.986 C232.783,38.254 224.984,41.629 217.77,45.974 C218.096,47.38 217.83,48.98 216.746,50 C215.277,51.551 212.543,51.541 211.09,49.976 C209.566,48.505 209.586,45.822 211.117,44.368 C212.275,43.17 214.131,42.928 215.641,43.548" id="Fill-5" fill="#F5951A"></path>
            <path d="M290.805,92.92 C289.545,93.271 289.082,95.062 290.068,95.945 C290.951,96.941 292.756,96.486 293.107,95.219 C293.615,93.891 292.133,92.404 290.805,92.92 M318.917,44.479 C317.753,44.985 317.484,46.717 318.501,47.509 C319.458,48.44 321.227,47.842 321.48,46.543 C321.886,45.14 320.21,43.772 318.917,44.479 M289.818,31.791 C299.509,34.026 308.861,37.734 317.415,42.809 C318.827,41.967 320.72,41.896 322.057,42.926 C323.848,44.166 324.216,46.935 322.818,48.604 C321.514,50.351 318.729,50.619 317.111,49.156 C316.016,48.282 315.624,46.84 315.723,45.486 C308.634,41.312 300.992,38.082 293.064,35.882 C293.02,54.25 293.061,72.625 293.045,90.997 C294.505,91.774 295.542,93.376 295.314,95.069 C295.169,97.293 292.865,99.023 290.688,98.584 C288.596,98.282 287.041,96.106 287.434,94.029 C287.621,92.633 288.645,91.511 289.885,90.916 C289.891,78.019 289.885,65.122 289.887,52.225 C289.877,45.412 289.926,38.599 289.818,31.791" id="Fill-6" fill="#F5951A"></path>
            <path d="M328.553,92.89 C327.281,93.178 326.735,94.942 327.664,95.878 C328.498,96.916 330.342,96.557 330.74,95.289 C331.308,93.98 329.905,92.458 328.553,92.89 M204.371,92.899 C203.117,93.201 202.59,94.92 203.486,95.859 C204.318,96.924 206.179,96.557 206.59,95.284 C207.136,93.964 205.726,92.438 204.371,92.899 M327.549,49.735 C340.037,59.505 349.974,72.618 355.533,87.495 C357.506,92.752 358.935,98.211 359.79,103.758 C359.919,104.591 359.237,105.47 358.383,105.488 C299.666,105.477 240.951,105.49 182.236,105.483 C180.207,105.488 178.176,105.465 176.144,105.508 C175.269,105.588 174.435,104.809 174.478,103.929 C175.783,95.608 178.312,87.473 182.054,79.926 C187.779,68.319 196.207,58.101 206.338,50.069 C206.285,63.687 206.406,77.3 206.369,90.918 C207.668,91.561 208.715,92.788 208.828,94.274 C209.088,96.369 207.408,98.448 205.297,98.618 C203.174,98.907 201.045,97.193 200.908,95.051 C200.693,93.358 201.734,91.754 203.207,90.989 C203.217,79.642 203.207,68.297 203.213,56.952 C190.26,68.862 181.035,84.937 177.982,102.321 C237.433,102.317 296.885,102.322 356.336,102.317 C353.24,84.746 343.849,68.522 330.683,56.563 C330.688,68.04 330.674,79.518 330.69,90.996 C332.086,91.726 333.106,93.209 332.998,94.824 C332.974,96.823 331.219,98.582 329.228,98.637 C327.172,98.795 325.217,97.114 325.067,95.059 C324.838,93.307 325.961,91.656 327.51,90.926 C327.494,77.194 327.603,63.466 327.549,49.735" id="Fill-7" fill="#F5951A"></path>
            <path d="M526.055,114.469 C524.896,115.093 524.861,116.94 526.01,117.591 C527.121,118.377 528.824,117.465 528.814,116.112 C528.926,114.728 527.213,113.707 526.055,114.469 M5.48,114.423 C4.235,115.012 4.174,116.989 5.409,117.625 C6.53,118.365 8.162,117.422 8.162,116.102 C8.248,114.767 6.649,113.746 5.48,114.423 M2.362,116.367 C2.121,114.2 3.963,112.103 6.146,112.074 C7.801,111.946 9.297,113.023 10.032,114.451 C181.114,114.444 352.199,114.448 523.287,114.448 C524.117,112.719 526.156,111.644 528.041,112.208 C530.117,112.719 531.447,115.087 530.814,117.13 C530.309,119.076 528.17,120.4 526.207,119.947 C524.92,119.729 523.873,118.79 523.313,117.642 C467.762,117.591 412.208,117.632 356.656,117.619 C241.114,117.625 125.571,117.609 10.028,117.627 C9.414,118.836 8.284,119.817 6.907,119.982 C4.719,120.375 2.465,118.59 2.362,116.367" id="Fill-8" fill="#F5951A"></path>
            <path d="M526.545,194.52 C525.242,194.801 524.684,196.587 525.639,197.532 C526.48,198.554 528.293,198.186 528.703,196.934 C529.256,195.631 527.887,194.119 526.545,194.52 M5.761,194.563 C4.445,194.918 4.051,196.835 5.129,197.676 C6.043,198.559 7.715,198.073 8.068,196.871 C8.588,195.533 7.098,194.036 5.761,194.563 M2.352,196.169 C2.359,194.06 4.299,192.226 6.4,192.325 C7.963,192.314 9.354,193.34 10.02,194.716 C130.209,194.745 250.397,194.719 370.587,194.729 C421.462,194.743 472.336,194.702 523.211,194.749 C523.885,193.655 524.838,192.624 526.174,192.406 C528.395,191.871 530.791,193.624 530.943,195.905 C531.209,197.981 529.561,200.047 527.477,200.248 C525.754,200.506 524.052,199.463 523.316,197.923 C498.938,197.852 474.55,197.912 450.172,197.893 C303.45,197.901 156.729,197.879 10.01,197.903 C9.277,199.43 7.613,200.487 5.895,200.251 C3.879,200.095 2.234,198.182 2.352,196.169" id="Fill-9" fill="#F5951A"></path>
            <path d="M496.85,206.39 C495.682,206.717 495.146,208.286 495.932,209.236 C496.689,210.364 498.607,210.118 499.076,208.846 C499.729,207.497 498.254,205.872 496.85,206.39 M496.814,204.202 C498.912,203.83 501.084,205.447 501.33,207.566 C501.699,209.703 500.014,211.905 497.855,212.09 C496.094,212.335 494.383,211.233 493.668,209.649 C434.48,209.637 375.292,209.652 316.105,209.641 C315.236,209.722 314.417,208.97 314.423,208.098 C314.384,207.196 315.214,206.39 316.117,206.485 C375.315,206.481 434.512,206.487 493.709,206.481 C494.363,205.325 495.447,204.355 496.814,204.202" id="Fill-10" fill="#F5951A"></path>
            <path d="M35.342,206.397 C34.131,206.762 33.666,208.435 34.552,209.353 C35.44,210.462 37.422,209.963 37.699,208.575 C38.088,207.247 36.636,205.907 35.342,206.397 M31.947,208.346 C31.791,206.36 33.356,204.444 35.334,204.203 C37.065,203.902 38.801,204.928 39.571,206.466 C98.297,206.504 157.022,206.474 215.748,206.48 C216.677,206.543 217.885,206.208 218.541,207.083 C219.385,208.035 218.563,209.741 217.281,209.639 C158.074,209.654 98.863,209.637 39.656,209.648 C38.988,211.025 37.627,212.102 36.052,212.115 C33.957,212.24 31.994,210.45 31.947,208.346" id="Fill-11" fill="#F5951A"></path>
            <g id="Group-2" transform="translate(0.000000, 126.000000)" fill="#FFFFFE">
                <path d="M343.861,14.855 C337.538,15.85 331.878,20.945 330.816,27.351 C330.227,31.533 331.284,35.941 333.695,39.407 C336.154,42.973 340.154,45.439 344.464,45.959 C348.859,46.551 353.477,45.126 356.77,42.145 C360.676,38.675 362.622,33.267 362.171,28.099 C361.753,24.051 359.398,20.356 356.178,17.936 C352.717,15.295 348.159,14.12 343.861,14.855 M343.111,0.701 C352.038,-0.236 361.337,2.646 368.038,8.649 C371.767,11.97 374.649,16.274 376.135,21.055 C377.774,26.193 377.698,31.751 376.565,36.984 C374.997,44.268 370.62,50.961 364.36,55.056 C359.969,57.982 354.798,59.636 349.555,60.067 C343.456,60.584 337.167,59.613 331.665,56.871 C324.975,53.596 319.74,47.579 317.335,40.54 C315.352,34.701 314.861,28.258 316.402,22.259 C318.32,14.811 323.624,8.481 330.288,4.76 C334.221,2.54 338.618,1.154 343.111,0.701" id="Fill-12"></path>
                <path d="M499.492,14.879 C493.189,15.941 487.58,21.068 486.586,27.479 C485.951,32.354 487.512,37.52 490.875,41.134 C493.385,43.856 496.898,45.626 500.588,45.999 C505.077,46.506 509.75,44.912 512.98,41.749 C516.559,38.329 518.328,33.238 517.98,28.34 C517.635,24.222 515.271,20.436 512.01,17.97 C508.501,15.268 503.854,14.093 499.492,14.879 M498.971,0.692 C507.887,-0.22 517.17,2.67 523.855,8.674 C527.285,11.74 529.99,15.631 531.557,19.968 C533.043,24.011 533.447,28.399 533.027,32.67 C532.375,40.556 528.697,48.268 522.521,53.299 C515.393,59.229 505.561,61.204 496.525,59.748 C489.035,58.603 481.922,54.639 477.374,48.523 C474.648,44.914 472.82,40.659 471.951,36.228 C470.843,30.596 471.02,24.6 473.186,19.231 C475.908,12.279 481.596,6.704 488.33,3.603 C491.68,2.043 495.293,1.058 498.971,0.692" id="Fill-13"></path>
                <path d="M86.449,15.189 C91.467,7.127 100.615,1.919 110.062,1.419 C115.107,1.146 120.152,2.261 124.789,4.206 C124.787,10.029 124.787,15.852 124.789,21.68 C120.297,15.536 111.07,13.669 104.484,17.419 C100.988,19.388 98.517,22.931 97.601,26.809 C96.519,31.35 97.168,36.439 99.924,40.284 C102.191,43.496 105.894,45.536 109.767,46.028 C115.342,46.894 121.189,44.534 124.793,40.236 C124.785,46.06 124.793,51.883 124.787,57.708 C121.222,58.799 117.631,59.978 113.886,60.237 C105.773,60.818 97.547,57.903 91.461,52.54 C88.07,49.641 85.379,45.908 83.816,41.721 C80.648,33.097 81.498,22.982 86.449,15.189" id="Fill-14"></path>
                <path d="M210.15,2.106 C225.8,18.621 241.449,35.139 257.102,51.651 C257.104,35.389 257.1,19.132 257.104,2.872 C258.296,2.872 259.492,2.868 260.689,2.878 C260.688,22.173 260.688,41.471 260.691,60.764 C254.413,53.945 247.992,47.246 241.663,40.469 C232.348,30.568 223.029,20.667 213.72,10.76 L213.72,58.831 L210.15,58.831 C210.148,39.922 210.148,21.016 210.15,2.106" id="Fill-15"></path>
                <path d="M283.848,14.133 C283.846,18.777 283.844,23.42 283.848,28.064 C286.332,28.033 288.834,28.176 291.299,27.808 C292.959,27.56 294.695,26.894 295.667,25.446 C296.861,23.628 296.859,21.31 296.572,19.231 C296.32,17.363 295.152,15.581 293.34,14.917 C290.309,13.797 287.008,14.225 283.848,14.133 M269.299,58.323 C269.301,39.679 269.295,21.032 269.301,2.389 C276.452,2.394 283.598,2.392 290.746,2.392 C295.413,2.315 300.283,2.969 304.343,5.423 C307.292,7.181 309.557,10.006 310.688,13.242 C311.956,16.78 312.07,20.625 311.695,24.335 C311.261,28.521 309.675,32.803 306.376,35.572 C302.848,38.6 298.077,39.596 293.547,39.772 C290.313,39.827 287.078,39.779 283.846,39.797 L283.846,58.323 L269.299,58.323" id="Fill-16"></path>
                <path d="M398.687,13.544 C398.688,18.18 398.683,22.816 398.687,27.455 C401.747,27.469 405.097,27.528 407.741,25.744 C409.753,24.387 410.399,21.767 410.103,19.47 C409.952,17.574 408.849,15.774 407.157,14.878 C404.573,13.481 401.541,13.521 398.687,13.544 M384.136,58.326 C384.128,39.681 384.128,21.035 384.134,2.392 C391.612,2.392 399.091,2.389 406.569,2.392 C411.11,2.489 415.839,3.5 419.5,6.324 C422.364,8.49 424.235,11.802 424.909,15.304 C425.819,20.065 425.271,25.3 422.517,29.389 C420.407,32.599 416.897,34.772 413.128,35.407 C418.901,43.093 424.825,50.673 430.649,58.323 C424.604,58.323 418.56,58.328 412.515,58.32 C407.909,51.118 403.343,43.891 398.702,36.709 C398.659,43.912 398.7,51.118 398.683,58.323 C393.834,58.323 388.983,58.323 384.136,58.326" id="Fill-17"></path>
                <path d="M430.244,14.681 C430.272,10.584 430.244,6.486 430.26,2.392 C443.123,2.392 455.988,2.394 468.85,2.389 C468.859,6.493 468.852,10.6 468.855,14.704 C464.854,14.71 460.848,14.702 456.85,14.707 C456.85,29.246 456.85,43.786 456.848,58.324 C451.996,58.324 447.146,58.326 442.297,58.324 C442.295,43.784 442.295,29.244 442.295,14.707 C438.277,14.69 434.26,14.741 430.244,14.681" id="Fill-18"></path>
                <path d="M0.152,2.872 C13.011,2.872 25.867,2.869 38.724,2.876 C38.72,6.987 38.726,11.1 38.724,15.213 C34.72,15.218 30.714,15.213 26.711,15.215 C26.711,29.752 26.711,44.291 26.709,58.831 L12.156,58.831 L12.156,15.215 C8.154,15.213 4.154,15.218 0.152,15.213 C0.152,11.1 0.148,6.985 0.152,2.872" id="Fill-19"></path>
                <path d="M43.996,2.872 L75.807,2.872 C75.812,6.985 75.808,11.1 75.808,15.213 C70.055,15.215 64.299,15.215 58.543,15.215 L58.543,24.541 C64.002,24.544 69.461,24.541 74.92,24.544 C74.922,28.646 74.922,32.753 74.922,36.857 C69.461,36.86 64.002,36.857 58.543,36.857 L58.543,46.485 C64.299,46.49 70.055,46.485 75.808,46.49 L75.808,58.831 C65.203,58.831 54.6,58.833 43.996,58.831 C43.996,40.178 43.992,21.524 43.996,2.872" id="Fill-20"></path>
                <path d="M133.74,2.875 C138.588,2.869 143.437,2.871 148.289,2.871 C148.295,10.062 148.291,17.25 148.291,24.438 C155.289,24.441 162.285,24.435 169.283,24.441 C169.287,17.255 169.285,10.063 169.285,2.878 C174.129,2.859 178.974,2.89 183.818,2.861 C183.869,21.518 183.824,40.173 183.838,58.83 L169.285,58.83 C169.283,51.185 169.291,43.538 169.283,35.896 C162.285,35.896 155.289,35.893 148.291,35.896 L148.291,58.83 C143.441,58.83 138.59,58.83 133.74,58.832 C133.734,40.181 133.736,21.526 133.74,2.875" id="Fill-21"></path>
                <path d="M194.561,2.875 C195.759,2.869 196.958,2.871 198.161,2.871 C198.161,21.524 198.163,40.178 198.159,58.83 C196.958,58.83 195.759,58.828 194.564,58.832 C194.559,40.181 194.561,21.526 194.561,2.875" id="Fill-22"></path>
            </g>
            <path d="M230.871,204.739 C232.6,203.683 235.07,203.853 236.56,205.26 C238.051,206.672 238.07,209.262 236.713,210.771 C235.937,211.648 235.021,212.387 234.185,213.205 C235.396,213.21 236.609,213.205 237.818,213.21 L237.818,215.695 C234.816,215.698 231.81,215.701 228.808,215.695 C230.31,214.04 231.832,212.401 233.343,210.755 C234.06,209.964 234.697,208.969 234.662,207.859 C234.636,207.052 233.793,206.264 232.976,206.605 C232.234,206.842 232.156,207.716 232.201,208.376 C231.131,208.372 230.064,208.376 229,208.372 C229.084,206.975 229.631,205.504 230.871,204.739" id="Fill-23" fill="#FFFFFE"></path>
            <path d="M254.896,206.743 C254.098,207.133 253.835,208.081 253.669,208.885 C253.439,210.285 253.536,211.883 254.398,213.064 C254.93,213.777 256.1,213.654 256.525,212.893 C257.402,211.4 257.428,209.486 256.846,207.886 C256.596,207.102 255.75,206.321 254.896,206.743 M254.37,204.168 C255.598,203.937 256.962,204.095 257.979,204.88 C259.354,205.927 259.973,207.685 260.107,209.357 C260.247,211.275 259.861,213.37 258.523,214.827 C256.863,216.648 253.581,216.545 252.066,214.59 C250.624,212.771 250.402,210.238 250.896,208.04 C251.288,206.278 252.514,204.546 254.37,204.168" id="Fill-24" fill="#FFFFFE"></path>
            <path d="M274.674,206.979 C274.666,206.158 274.67,205.34 274.676,204.525 C276.18,204.522 277.682,204.522 279.188,204.525 C279.191,208.248 279.191,211.973 279.188,215.699 L276.268,215.699 C276.266,212.791 276.268,209.887 276.268,206.98 C275.732,206.979 275.201,206.975 274.674,206.979" id="Fill-25" fill="#FFFFFE"></path>
            <path d="M297.787,207.574 C297.787,208.343 298.315,208.776 299.277,208.776 C300.255,208.776 300.784,208.343 300.784,207.574 C300.784,206.771 300.255,206.34 299.277,206.34 C298.315,206.34 297.787,206.771 297.787,207.574 Z M297.515,212.317 C297.515,213.231 298.14,213.729 299.277,213.729 C300.432,213.729 301.072,213.231 301.072,212.317 C301.072,211.42 300.432,210.923 299.294,210.923 C298.14,210.923 297.515,211.42 297.515,212.317 Z M303.235,207.414 C303.235,208.358 302.723,209.241 301.89,209.721 C303.06,210.251 303.813,211.323 303.813,212.573 C303.813,214.594 302.034,215.875 299.277,215.875 C296.537,215.875 294.774,214.609 294.774,212.622 C294.774,211.356 295.575,210.251 296.825,209.721 C295.912,209.192 295.335,208.279 295.335,207.333 C295.335,205.523 296.89,204.368 299.262,204.368 C301.697,204.368 303.235,205.555 303.235,207.414 Z" id="Fill-26" fill="#FFFFFE"></path>
        </g>
    </g>
</svg>