<svg xmlns="http://www.w3.org/2000/svg" width="956.78" height="168.05" viewBox="0 0 956.78 168.05">
  <defs>
    <style>
      .cls-1 {
        fill: #2a3c90;
      }
    </style>
  </defs>
  <title>bitmaker</title>
  <g id="Layer_2" data-name="Layer 2">
    <g id="Layer_1-2" data-name="Layer 1">
      <g>
        <g>
          <path class="cls-1" d="M21.62,62.9Q37,50,57.91,50q23.79,0,41,17.08a56.71,56.71,0,0,1,12.72,18.8,58.68,58.68,0,0,1,4.24,22.45q0,24.36-17,41.24-17.16,17.08-41,17.08A55.6,55.6,0,0,1,17,149.56,56.44,56.44,0,0,1,0,108.32V10.83A10.54,10.54,0,0,1,3.05,3.08,10.36,10.36,0,0,1,10.76,0a10.58,10.58,0,0,1,7.7,3.08,10.33,10.33,0,0,1,3.16,7.75Zm36.29,82A34.63,34.63,0,0,0,72.08,142,36.76,36.76,0,0,0,83.62,134a37.5,37.5,0,0,0,7.75-11.61,36.35,36.35,0,0,0,0-28.22,37.42,37.42,0,0,0-7.75-11.62,36.79,36.79,0,0,0-11.54-7.92,36.2,36.2,0,0,0-28.44,0A36.47,36.47,0,0,0,24.46,94.15a36.75,36.75,0,0,0,0,28.33,37.18,37.18,0,0,0,7.7,11.61A36.52,36.52,0,0,0,43.64,142a34.93,34.93,0,0,0,14.27,2.92"/>
          <path class="cls-1" d="M161.65,29.27a12.4,12.4,0,0,1-3.73,9.06,12.66,12.66,0,0,1-18,0,12.4,12.4,0,0,1-3.73-9.06,12.43,12.43,0,0,1,3.73-9.07,12.69,12.69,0,0,1,18,0,12.43,12.43,0,0,1,3.73,9.07M138.26,155.72,138.08,61a10.57,10.57,0,0,1,3.14-7.77,10.68,10.68,0,0,1,15.2,0,11,11,0,0,1,3.27,7.76l.18,94.77a10.94,10.94,0,0,1-3.24,7.77,10.68,10.68,0,0,1-15.2,0,10.58,10.58,0,0,1-3.17-7.76"/>
          <path class="cls-1" d="M192.15,50H197V10.83a10.46,10.46,0,0,1,3.16-7.65A10.43,10.43,0,0,1,207.87,0a10.3,10.3,0,0,1,7.6,3.18,10.42,10.42,0,0,1,3.16,7.65V50h12.93a10.12,10.12,0,0,1,7.54,3.18,10.51,10.51,0,0,1,3.11,7.65,10.63,10.63,0,0,1-3.11,7.76,10.12,10.12,0,0,1-7.54,3.18H218.63v52.39q0,20.72,20.68,20.72a10.15,10.15,0,0,1,7.55,3.18A10.55,10.55,0,0,1,250,155.7a10.68,10.68,0,0,1-3.11,7.76,10.15,10.15,0,0,1-7.55,3.18q-42.3,0-42.3-42.49V71.76h-4.86a10.23,10.23,0,0,1-7.5-3.18,10.58,10.58,0,0,1-3.15-7.76,10.46,10.46,0,0,1,3.15-7.65,10.23,10.23,0,0,1,7.5-3.18"/>
          <path class="cls-1" d="M432.26,155.7a10.55,10.55,0,0,1-3.16,7.76,10.73,10.73,0,0,1-15.25,0,10.66,10.66,0,0,1-3.1-7.76V96.44A23.75,23.75,0,0,0,408.83,87a25.27,25.27,0,0,0-5.22-7.87,24.66,24.66,0,0,0-7.8-5.36,23.8,23.8,0,0,0-9.67-2,23.13,23.13,0,0,0-9.52,2,26,26,0,0,0-7.81,5.31,24.4,24.4,0,0,0-7.19,17.39V155.7a10.58,10.58,0,0,1-3.15,7.76,10.79,10.79,0,0,1-15.3,0A10.55,10.55,0,0,1,340,155.7V96.44a23.76,23.76,0,0,0-2-9.58,25.2,25.2,0,0,0-13-13.12,23.2,23.2,0,0,0-9.52-2A23.78,23.78,0,0,0,306,73.68a24.84,24.84,0,0,0-7.8,5.32,25.16,25.16,0,0,0-5.28,7.86A24.24,24.24,0,0,0,291,96.44V155.7a10.55,10.55,0,0,1-3.16,7.76,10.3,10.3,0,0,1-7.6,3.18,10.43,10.43,0,0,1-7.7-3.18,10.54,10.54,0,0,1-3.15-7.76V60.82a10.44,10.44,0,0,1,3.15-7.65,10.3,10.3,0,0,1,7.6-3.18,10.58,10.58,0,0,1,6.41,2,10.16,10.16,0,0,1,3.83,5.36A44.09,44.09,0,0,1,315.5,50a46.55,46.55,0,0,1,19.44,4.12,43.8,43.8,0,0,1,15.93,12.44Q365.24,50,386.14,50A43.81,43.81,0,0,1,404,53.69a47,47,0,0,1,14.69,10,47.6,47.6,0,0,1,9.93,14.79,44.84,44.84,0,0,1,3.67,18Z"/>
          <path class="cls-1" d="M541,155.81v-2.08a59.12,59.12,0,0,1-16.85,9.57,57.83,57.83,0,0,1-60.4-13.74,56.4,56.4,0,0,1-17-41.24,56.4,56.4,0,0,1,17-41.25A55.64,55.64,0,0,1,504.68,50q23.79,0,41,17.08a56.4,56.4,0,0,1,17,41.25v47.49a10.48,10.48,0,0,1-3.15,7.65,10.8,10.8,0,0,1-15.31,0,10.49,10.49,0,0,1-3.16-7.65m-36.3-84a34.93,34.93,0,0,0-14.27,2.92,36.36,36.36,0,0,0-11.47,7.86,37.1,37.1,0,0,0-7.71,11.61,36.63,36.63,0,0,0,0,28.33,37.1,37.1,0,0,0,7.71,11.61A36.55,36.55,0,0,0,490.41,142a36.22,36.22,0,0,0,28.45,0A37,37,0,0,0,530.39,134a37.5,37.5,0,0,0,7.75-11.61,36.47,36.47,0,0,0,0-28.22,37.42,37.42,0,0,0-7.75-11.62,36.83,36.83,0,0,0-11.53-7.91,34.71,34.71,0,0,0-14.18-2.92"/>
          <path class="cls-1" d="M578.94,155.7V10.94a10.6,10.6,0,0,1,3.15-7.76A10.47,10.47,0,0,1,589.8,0a10.32,10.32,0,0,1,7.6,3.18,10.61,10.61,0,0,1,3.16,7.76V92.17L662.4,51.66A10.45,10.45,0,0,1,668.19,50a10.66,10.66,0,0,1,4.24.84,10,10,0,0,1,3.41,2.34,11.78,11.78,0,0,1,2.33,3.49,10.09,10.09,0,0,1,.88,4.16q0,5.83-4.14,8.65L631.58,97.79l44.47,50.42a11,11,0,0,1,3,7.6,10.14,10.14,0,0,1-.88,4.17,11.87,11.87,0,0,1-2.33,3.48,10.15,10.15,0,0,1-3.41,2.35,10.83,10.83,0,0,1-4.24.83,10,10,0,0,1-7.24-2.81l-47.78-54.05-12.61,8.33V155.7a10.66,10.66,0,0,1-3.16,7.71,10.22,10.22,0,0,1-7.6,3.23,10.36,10.36,0,0,1-7.71-3.23,10.65,10.65,0,0,1-3.15-7.71"/>
          <path class="cls-1" d="M775.41,135.24a10.42,10.42,0,0,1,7.7,3.07,10.54,10.54,0,0,1,3,7.76,10.85,10.85,0,0,1-3.1,7.81A57.65,57.65,0,0,1,704.25,151a56.43,56.43,0,0,1-17-41.24,56.43,56.43,0,0,1,17-41.25,55.64,55.64,0,0,1,41-17.08q23.79,0,40.95,17.08a56.41,56.41,0,0,1,12.72,18.8,58.65,58.65,0,0,1,4.25,22.45,10.38,10.38,0,0,1-3.16,7.75,10.61,10.61,0,0,1-7.71,3.07H710.35a36.32,36.32,0,0,0,13.19,18.59,36.77,36.77,0,0,0,10.14,5.27,35.63,35.63,0,0,0,11.53,1.87,36.09,36.09,0,0,0,12.51-2.08A34.11,34.11,0,0,0,768.27,138a11.25,11.25,0,0,1,7.14-2.71m4.65-36.35a34.78,34.78,0,0,0-5.22-10.46A37,37,0,0,0,756.64,75a35.38,35.38,0,0,0-11.43-1.87A35.82,35.82,0,0,0,733.73,75a37.88,37.88,0,0,0-10.24,5.26,36.2,36.2,0,0,0-8.07,8.13,34,34,0,0,0-5.07,10.46Z"/>
          <path class="cls-1" d="M841.89,62.23v2.08a59.26,59.26,0,0,1,16.85-9.57,55.94,55.94,0,0,1,19.45-3.34A81.85,81.85,0,0,1,888,52a41.83,41.83,0,0,1,9.62,2.24,20.2,20.2,0,0,1,7.29,4.42A9.72,9.72,0,0,1,907.76,66a10.57,10.57,0,0,1-.87,4.28,12.27,12.27,0,0,1-2.33,3.48,10.25,10.25,0,0,1-3.41,2.35,10.83,10.83,0,0,1-4.24.83,11.56,11.56,0,0,1-4.55-1.15,38,38,0,0,0-14.17-2.6A35.25,35.25,0,0,0,864,76a36.31,36.31,0,0,0-19.29,19.43,36.07,36.07,0,0,0-2.84,14.27v47.49a10.45,10.45,0,0,1-3.16,7.65,10.3,10.3,0,0,1-7.6,3.18,10.81,10.81,0,0,1-10.85-10.83v-95A10.81,10.81,0,0,1,831.13,51.4a10.3,10.3,0,0,1,7.6,3.18,10.43,10.43,0,0,1,3.16,7.65"/>
        </g>
        <path class="cls-1" d="M956.78,65a17.5,17.5,0,1,1-35,0,17.5,17.5,0,0,1,35,0ZM939.3,49.37A15.62,15.62,0,0,0,923.67,65a15.63,15.63,0,1,0,31.25,0A15.69,15.69,0,0,0,939.3,49.37Zm.9,6.84a5.16,5.16,0,0,1,5.15,5.12A5.05,5.05,0,0,1,943.83,65a5.27,5.27,0,0,1-.83.67,7.81,7.81,0,0,1-1,.57l4.18,6.69a.61.61,0,0,1,.12.34.53.53,0,0,1-.17.4.59.59,0,0,1-.91-.12l-4.41-7.11a4.13,4.13,0,0,1-.58,0h-4v6.78a.5.5,0,0,1-.18.4.6.6,0,0,1-.42.16.5.5,0,0,1-.37-.16.5.5,0,0,1-.17-.4V56.76a.48.48,0,0,1,.17-.39.54.54,0,0,1,.37-.16Zm-4,1.13v8h4A3.9,3.9,0,0,0,943,64.17a3.82,3.82,0,0,0,1.19-2.84A3.93,3.93,0,0,0,943,58.49a4,4,0,0,0-2.84-1.15Z"/>
      </g>
    </g>
  </g>
</svg>
