<?xml version="1.0" encoding="UTF-8"?>
<svg width="152px" height="25px" viewBox="0 0 152 25" version="1.1" xmlns="http://www.w3.org/2000/svg" xmlns:xlink="http://www.w3.org/1999/xlink">
    <!-- Generator: Sketch 48.2 (47327) - http://www.bohemiancoding.com/sketch -->
    <title>Page 1</title>
    <desc>Created with Sketch.</desc>
    <defs>
        <polygon id="path-1" points="1.02318154e-12 0 33.1667315 0 33.1667315 24.0374269 1.02318154e-12 24.0374269"></polygon>
    </defs>
    <g id="TIP---Resumido" stroke="none" stroke-width="1" fill="none" fill-rule="evenodd" transform="translate(-645.000000, -2165.000000)">
        <g id="Page-1" transform="translate(645.000000, 2165.000000)">
            <path d="M145.064417,20.2051619 L139.042945,17.1949548 L133.021472,20.2051619 L134.096803,13.540245 L129.364969,8.81262759 L136.033157,7.73782444 L139.042945,1.71930592 L142.054629,7.73782444 L148.937125,8.81262759 L143.989087,13.540245 L145.064417,20.2051619 Z M139.042945,0 C132.376653,0 127,5.37401575 127,12.037037 C127,18.7000583 132.376653,24.0740741 139.042945,24.0740741 C145.709236,24.0740741 151.08589,18.7000583 151.08589,12.037037 C151.08589,5.15981336 145.709236,0 139.042945,0 Z" id="Fill-1" fill="#F7991C"></path>
            <path d="M39.6497424,22.4196443 C38.0734119,23.622866 35.6354275,24.0740741 32.3376264,24.0740741 L27.6067976,24.0740741 L25.4554188,24.0740741 C24.7389049,24.0740741 24.022391,23.9236714 23.3058771,23.7732687 C22.5893632,23.622866 21.8710122,23.3239888 21.2978011,23.1735861 C20.5812872,22.8708524 20.0080761,22.4196443 19.5781677,21.9684362 C19.1482594,21.5172281 18.7183511,20.7652146 18.4317455,20.013201 C18.1433028,19.2592593 18,18.3587713 18,17.1536214 L18,0 L22.3027577,0 L22.3027577,17.0012904 C22.3027577,18.8080511 23.8790882,19.7123956 27.1768893,19.7123956 L33.0541403,19.7123956 C36.2086386,19.7123956 37.7849691,18.8080511 37.7849691,17.0012904 L37.7849691,0 L42.0858896,0 L42.0858896,17.3040241 C41.944424,19.5619929 41.2260729,21.3668254 39.6497424,22.4196443" id="Fill-3" fill="#000000"></path>
            <g id="Group-7" transform="translate(47.319018, 0.000000)">
                <mask id="mask-2" fill="white">
                    <use xlink:href="#path-1"></use>
                </mask>
                <g id="Clip-6"></g>
                <path d="M28.5119806,23.7467532 L28.5119806,8.45137987 L19.057076,22.4362013 C18.7644064,22.8711851 18.3281983,23.3099026 17.8919902,23.6011364 C17.455782,23.8923701 17.0195739,24.037987 16.437963,24.037987 C15.4201441,24.037987 14.5458636,23.6011364 13.8188501,22.5818182 L4.36394551,8.30576299 L4.36394551,23.7467532 L1.02318154e-12,23.7467532 L1.02318154e-12,2.62297078 C1.02318154e-12,1.74926948 0.290805425,1.16493506 0.727013562,0.729951299 C1.1632217,0.293100649 1.74669668,0 2.47371025,0 C3.49152923,0 4.36394551,0.438717532 4.94555636,1.16493506 L16.7287685,18.0658279 L28.3665779,1.31055195 C28.9481887,0.438717532 29.6752023,0 30.6930213,0 C31.421899,0 32.0035098,0.293100649 32.4397179,0.729951299 C32.8759261,1.16493506 33.1667315,1.89488636 33.1667315,2.76858766 L33.1667315,23.6011364 L28.5119806,23.6011364 L28.5119806,23.7467532 Z" id="Fill-5" fill="#000000" mask="url(#mask-2)"></path>
            </g>
            <polygon id="Fill-8" fill="#000000" points="84 24.0740741 88.6319018 24.0740741 88.6319018 0 84 0"></polygon>
            <path d="M109.896965,5.94329894 L105.588602,13.0767811 L114.205328,13.0767811 L109.896965,5.94329894 Z M120.594575,24.0740741 L116.880206,17.5347314 L102.915627,17.5347314 L99.349757,24.0740741 L94,24.0740741 L107.372489,1.63388353 C107.966483,0.594139465 108.857475,0 109.896965,0 C110.936455,0 111.82935,0.594139465 112.423345,1.63388353 L125.496933,24.0740741 L120.594575,24.0740741 Z" id="Fill-10" fill="#000000"></path>
            <path d="M13.5969967,12.9358516 C13.5969967,20.0566235 10.9067023,23.1094472 6.12544605,24.1282968 C1.49354421,25 0,25 0,25 L0,20.2019073 C1.79225305,20.0566235 4.63190184,19.7660557 6.42415489,19.1849203 C8.06896832,18.6037848 9.26380368,17.0056623 9.26380368,12.9358516 L9.4131581,4.36037848 L9.4131581,0 L13.8957055,0 L13.5969967,12.9358516 Z" id="Fill-11" fill="#000000"></path>
        </g>
    </g>
</svg>