<svg width="99" height="20" viewBox="0 0 99 20" xmlns="http://www.w3.org/2000/svg"><title>zalando_logo_20</title><g fill="none" fill-rule="evenodd"><path d="M43.21 4.944c-.715-.398-1.777-.593-3.248-.593-2.012.002-3.88.426-4.586.693-.16.052-.33.192-.334.43v.054l.2 1.016.004.02c.062.205.232.3.385.3h.003c.05-.004.088-.014.124-.023l.335-.08c.877-.22 2.202-.558 3.68-.558.898 0 1.5.08 1.905.252.656.253.66.684.667 1.397v1.067c-.075-.002-.202-.003-.397-.003-.725 0-2.15.035-3.55.262-2.138.334-3.907.853-3.895 3.845 0 3.798 3.47 3.804 5.136 3.808 1.13-.002 2.175-.172 2.858-.314 1.555-.367 1.953-.868 1.932-2.437V7.763c0-.964.004-2.162-1.22-2.82zm-.855 9.753c-.828.273-1.734.41-2.694.41v.09-.09c-1.534-.012-3.03-.19-3.033-2.175.01-1.58.84-1.767 1.89-2.005l.073-.017c.934-.203 3.282-.24 3.765-.246v4.033zm19.41-6.935v6.314c.02 1.57-.377 2.07-1.933 2.437-.68.143-1.725.313-2.857.314-1.666-.004-5.135-.01-5.136-3.807-.013-2.99 1.756-3.51 3.894-3.844 1.4-.228 2.826-.263 3.55-.263.196 0 .322.002.4.003V7.85c-.008-.713-.013-1.143-.668-1.396-.404-.174-1.008-.252-1.906-.252-1.48 0-2.804.336-3.68.558l-.334.08c-.036.01-.075.02-.125.02-.154 0-.323-.092-.386-.3l-.005-.018-.2-1.016v-.053c.004-.238.174-.38.333-.43.708-.267 2.574-.692 4.587-.693 1.47 0 2.533.195 3.247.594 1.223.657 1.22 1.855 1.218 2.818zm-2.07 2.902c-.486.005-2.83.043-3.766.246l-.075.017c-1.05.238-1.88.425-1.89 2.005.002 1.985 1.5 2.164 3.034 2.175v.09-.09c.96 0 1.866-.137 2.694-.41v-4.033zM93.172 4.35c-4.83.008-5.24 3.23-5.245 6.25.005 3.01.414 6.22 5.245 6.227 4.827-.008 5.238-3.21 5.245-6.228-.005-3.16-.414-6.242-5.245-6.25zm0 10.715c-2.93-.014-3.077-1.54-3.097-4.464.02-2.938.167-4.473 3.096-4.486 2.93.013 3.078 1.548 3.098 4.485-.02 2.924-.168 4.45-3.097 4.465zm-8.67 1.318l-.125.032c-.675.174-1.6.412-3.222.412h-.004c-4.472-.008-5.348-2.297-5.353-6.25.004-4.532 1.42-6.22 5.22-6.226 1.342 0 2.267.177 2.93.34l-.004-3.652c-.005-.16.065-.37.438-.442l1.188-.308h.065c.273.007.37.253.37.463v13.72c.018.868-.083 1.61-1.503 1.913zm-.557-9.936c-.396-.102-1.503-.356-2.75-.356-2.288.023-3.25.654-3.272 4.51.027 4.235 1.268 4.465 3.293 4.485v.09-.09c1.26 0 2.342-.267 2.728-.373V6.447zM73.276 16.54h-1.06c-.287 0-.5-.218-.5-.507v-8.14c-.02-1.376-.427-1.76-1.887-1.78-1.652 0-3.325.422-3.876.574v9.347c0 .293-.2.507-.477.507h-1.085c-.285 0-.5-.218-.5-.506v-9.13c-.015-.844.062-1.428 1.247-1.818 1.133-.397 3.3-.734 4.735-.735 2.73.004 3.895 1.005 3.9 3.346v8.338c0 .288-.215.506-.5.506zm-24.053.22c.612-.013 1.062-.134 1.24-.336.062-.07.09-.154.083-.235-.004-.068-.004-.068-.17-.864l-.005-.02c-.036-.207-.18-.302-.302-.302h-.018S49.898 15 49.746 15c-.436-.014-.797-.08-.804-.724V.75c0-.224-.134-.455-.39-.46h-.077l-1.19.31c-.202.02-.414.167-.404.438v13.28c.003 1.572.835 2.44 2.342 2.443zm-16.798-.22h-8.522c-.285 0-.5-.218-.5-.507v-1.056c-.005-.26.076-.373.234-.572L30.42 6.4h-6.647c-.285 0-.5-.22-.5-.508v-.748c0-.29.216-.507.5-.507h8.61c.283 0 .497.218.498.507v1.078c.005.195-.06.36-.215.534l-6.8 8.022h6.56c.284 0 .498.218.5.507v.75c-.002.287-.216.505-.5.505z" fill="#1D1D1B"/><path d="M3.968 19.895c-.723 0-1.125-.172-1.34-.297-.297-.174-.844-.617-1.335-1.927C.506 15.57.04 13.004.02 9.99v-.01C.04 6.96.506 4.395 1.293 2.293 1.783.984 2.33.54 2.63.367 2.842.24 3.243.07 3.965.07c.276 0 .6.025.976.086 2.186.36 4.607 1.233 7.19 2.723l.008.004c2.562 1.526 4.518 3.217 5.917 4.96.873 1.088.977 1.79.977 2.138 0 .348-.104 1.052-.977 2.138-1.4 1.743-3.355 3.435-5.917 4.96l-.01.006c-2.58 1.49-5.002 2.363-7.188 2.722-.377.063-.7.087-.974.087" fill="#FF6900"/></g></svg>